<svg width="83" height="64" viewBox="0 0 83 64" fill="none" xmlns="http://www.w3.org/2000/svg">
<mask id="mask0_11_641" style="mask-type:luminance" maskUnits="userSpaceOnUse" x="0" y="0" width="83" height="64">
<path d="M83 0.666992H0.333374V63.3337H83V0.666992Z" fill="white"/>
</mask>
<g mask="url(#mask0_11_641)">
<mask id="mask1_11_641" style="mask-type:luminance" maskUnits="userSpaceOnUse" x="1" y="2" width="81" height="60">
<path d="M1.66675 2.00049H81.6668V61.9849H1.66675V2.00049Z" fill="white"/>
</mask>
<g mask="url(#mask1_11_641)">
<path d="M41.7345 54.1724C58.0365 54.1724 68.5886 46.4589 68.5886 46.4589C68.5886 46.4589 65.7084 53.2089 57.0782 56.1047L59.9584 60.9276C74.8334 60.4433 81.0522 50.4537 81.0522 50.4537C81.0522 28.2662 71.3595 10.2818 71.3595 10.2818C61.6615 2.84429 52.4428 3.04742 52.4428 3.04742L51.3282 4.01096C62.7709 7.59429 67.6303 13.662 67.6303 13.662C60.6251 9.73492 52.2865 6.9068 41.7345 6.9068C31.1876 6.9068 22.8438 9.73492 15.8438 13.662C15.8438 13.662 20.7032 7.59429 32.1459 4.01096L31.0313 3.04742C31.0313 3.04742 21.8074 2.84429 12.1147 10.2818C12.1147 10.2818 2.41675 28.2662 2.41675 50.4537C2.41675 50.4537 8.6355 60.4433 23.5157 60.9276L26.3907 56.1047C17.7605 53.2089 14.8855 46.4589 14.8855 46.4589C14.8855 46.4589 25.4324 54.1724 41.7345 54.1724Z" fill="#070404"/>
</g>
<path d="M60.9168 36.813C60.9168 37.3182 60.8699 37.8182 60.7762 38.3182C60.6876 38.813 60.547 39.2974 60.3699 39.7661C60.1876 40.2297 59.9637 40.6776 59.7032 41.0994C59.4428 41.5213 59.1407 41.9067 58.8074 42.2661C58.4741 42.6255 58.1095 42.9432 57.7189 43.2297C57.3282 43.5109 56.9116 43.7453 56.4741 43.938C56.0418 44.1359 55.5887 44.2817 55.1251 44.3807C54.6616 44.4797 54.198 44.5265 53.7241 44.5265C53.2501 44.5265 52.7814 44.4797 52.3178 44.3807C51.8595 44.2817 51.4064 44.1359 50.9689 43.938C50.5366 43.7453 50.1199 43.5109 49.7293 43.2297C49.3335 42.9432 48.9741 42.6255 48.6355 42.2661C48.3022 41.9067 48.0053 41.5213 47.7449 41.0994C47.4793 40.6776 47.2605 40.2297 47.0782 39.7661C46.896 39.2974 46.7605 38.813 46.672 38.3182C46.5782 37.8182 46.5314 37.3182 46.5314 36.813C46.5314 36.3026 46.5782 35.8026 46.672 35.3026C46.7605 34.8078 46.896 34.3234 47.0782 33.8599C47.2605 33.3911 47.4793 32.9432 47.7449 32.5213C48.0053 32.0994 48.3022 31.714 48.6355 31.3547C48.9741 30.9953 49.3335 30.6776 49.7293 30.3963C50.1199 30.1151 50.5366 29.8755 50.9689 29.6828C51.4064 29.4849 51.8595 29.339 52.3178 29.2401C52.7814 29.1411 53.2501 29.0942 53.7241 29.0942C54.198 29.0942 54.6616 29.1411 55.1251 29.2401C55.5887 29.339 56.0418 29.4849 56.4741 29.6828C56.9116 29.8755 57.3282 30.1151 57.7189 30.3963C58.1095 30.6776 58.4741 30.9953 58.8074 31.3547C59.1407 31.714 59.4428 32.0994 59.7032 32.5213C59.9637 32.9432 60.1876 33.3911 60.3699 33.8599C60.547 34.3234 60.6876 34.8078 60.7762 35.3026C60.8699 35.8026 60.9168 36.3026 60.9168 36.813Z" fill="white"/>
<path d="M36.9428 36.813C36.9428 37.3182 36.8959 37.8182 36.8022 38.3182C36.7136 38.813 36.573 39.2974 36.3959 39.7661C36.2136 40.2297 35.9897 40.6776 35.7292 41.0994C35.4688 41.5213 35.1667 41.9067 34.8334 42.2661C34.5001 42.6255 34.1407 42.9432 33.7449 43.2297C33.3542 43.5109 32.9376 43.7453 32.5001 43.938C32.0678 44.1359 31.6147 44.2817 31.1511 44.3807C30.6876 44.4797 30.224 44.5265 29.7501 44.5265C29.2761 44.5265 28.8074 44.4797 28.349 44.3807C27.8855 44.2817 27.4324 44.1359 27.0001 43.938C26.5626 43.7453 26.1459 43.5109 25.7553 43.2297C25.3595 42.9432 25.0001 42.6255 24.6667 42.2661C24.3282 41.9067 24.0313 41.5213 23.7709 41.0994C23.5053 40.6776 23.2865 40.2297 23.1042 39.7661C22.922 39.2974 22.7865 38.813 22.698 38.3182C22.6042 37.8182 22.5574 37.3182 22.5574 36.813C22.5574 36.3026 22.6042 35.8026 22.698 35.3026C22.7865 34.8078 22.922 34.3234 23.1042 33.8599C23.2865 33.3911 23.5053 32.9432 23.7709 32.5213C24.0313 32.0994 24.3282 31.714 24.6667 31.3547C25.0001 30.9953 25.3595 30.6776 25.7553 30.3963C26.1459 30.1151 26.5626 29.8755 27.0001 29.6828C27.4324 29.4849 27.8855 29.339 28.349 29.2401C28.8074 29.1411 29.2761 29.0942 29.7501 29.0942C30.224 29.0942 30.6876 29.1411 31.1511 29.2401C31.6147 29.339 32.0678 29.4849 32.5001 29.6828C32.9376 29.8755 33.3542 30.1151 33.7449 30.3963C34.1407 30.6776 34.5001 30.9953 34.8334 31.3547C35.1667 31.714 35.4688 32.0994 35.7292 32.5213C35.9897 32.9432 36.2136 33.3911 36.3959 33.8599C36.573 34.3234 36.7136 34.8078 36.8022 35.3026C36.8959 35.8026 36.9428 36.3026 36.9428 36.813Z" fill="white"/>
<path d="M53.724 45.4902C49.2292 45.4902 45.573 41.5996 45.573 36.8132C45.573 32.0267 49.2292 28.1309 53.724 28.1309C58.2188 28.1309 61.8751 32.0267 61.8751 36.8132C61.8751 41.5996 58.2188 45.4902 53.724 45.4902ZM53.724 30.0579C50.2865 30.0579 47.4897 33.0892 47.4897 36.8132C47.4897 40.5319 50.2865 43.5632 53.724 43.5632C57.1615 43.5632 59.9584 40.5319 59.9584 36.8132C59.9584 33.0892 57.1615 30.0579 53.724 30.0579Z" fill="#070404"/>
<path d="M29.75 45.4902C25.2552 45.4902 21.599 41.5996 21.599 36.8132C21.599 32.0267 25.2552 28.1309 29.75 28.1309C34.2448 28.1309 37.9011 32.0267 37.9011 36.8132C37.9011 41.5996 34.2448 45.4902 29.75 45.4902ZM29.75 30.0579C26.3125 30.0579 23.5157 33.0892 23.5157 36.8132C23.5157 40.5319 26.3125 43.5632 29.75 43.5632C33.1875 43.5632 35.9844 40.5319 35.9844 36.8132C35.9844 33.0892 33.1875 30.0579 29.75 30.0579Z" fill="#070404"/>
<path d="M65.2292 17.7818C65.1511 17.7818 65.073 17.7609 65 17.7193C64.8178 17.6203 64.6355 17.5266 64.4584 17.438L64.0521 17.2297C63.8178 17.1099 63.724 16.8182 63.849 16.5786C63.9688 16.3443 64.2657 16.2557 64.4948 16.3755L64.8803 16.5734C65.0782 16.6724 65.2709 16.7661 65.4636 16.8755C65.6928 17.0057 65.7761 17.2974 65.6511 17.5318C65.5625 17.688 65.4011 17.7818 65.2292 17.7818Z" fill="#070404"/>
<path d="M62.3542 16.3076C62.2865 16.3076 62.2136 16.292 62.1511 16.2607C60.6615 15.5576 59.1094 14.9274 57.4011 14.3336C57.1511 14.2451 57.0209 13.9691 57.1042 13.7191C57.1928 13.4691 57.4688 13.3336 57.7136 13.4222C59.4532 14.0264 61.0365 14.667 62.5574 15.3909C62.7969 15.5003 62.9011 15.792 62.7865 16.0316C62.7084 16.2034 62.5365 16.3076 62.3542 16.3076Z" fill="#070404"/>
<path d="M18.2449 17.7817C18.0731 17.7817 17.9064 17.688 17.8231 17.5317C17.6929 17.2974 17.7814 17.0005 18.0106 16.8755C25.4481 12.7609 33.2085 10.7661 41.7345 10.7661C46.6304 10.7661 51.2241 11.4328 55.7762 12.7974C56.0314 12.8755 56.1772 13.1411 56.0991 13.3963C56.0262 13.6515 55.7606 13.7974 55.5054 13.7192C51.0366 12.3807 46.5366 11.7297 41.7345 11.7297C33.3752 11.7297 25.7658 13.688 18.4741 17.7192C18.4012 17.7609 18.3231 17.7817 18.2449 17.7817Z" fill="#070404"/>
</g>
</svg>
