<svg width="62" height="64" viewBox="0 0 62 64" fill="none" xmlns="http://www.w3.org/2000/svg">
<mask id="mask0_11_604" style="mask-type:luminance" maskUnits="userSpaceOnUse" x="0" y="0" width="63" height="64">
<path d="M62.0001 0.666992H0.666748V63.3337H62.0001V0.666992Z" fill="white"/>
</mask>
<g mask="url(#mask0_11_604)">
<mask id="mask1_11_604" style="mask-type:luminance" maskUnits="userSpaceOnUse" x="1" y="1" width="61" height="61">
<path d="M1.31775 1.98486H61.3178V61.9849H1.31775V1.98486Z" fill="white"/>
</mask>
<g mask="url(#mask1_11_604)">
<path d="M31.2552 1.95361C14.7292 1.95361 1.2865 15.4015 1.2865 31.9276C1.2865 48.4536 14.7292 61.8963 31.2552 61.8963C47.7813 61.8963 61.224 48.4536 61.224 31.9276C61.224 15.4015 47.7813 1.95361 31.2552 1.95361ZM38.7084 32.9797H33.8334C33.8334 40.7713 33.8334 50.3651 33.8334 50.3651H26.6094C26.6094 50.3651 26.6094 40.8651 26.6094 32.9797H23.1719V26.839H26.6094V22.8651C26.6094 20.0213 27.9584 15.5734 33.9011 15.5734L39.25 15.5942V21.5578C39.25 21.5578 35.9948 21.5578 35.3646 21.5578C34.7292 21.5578 33.8334 21.8755 33.8334 23.2297V26.839H39.3386L38.7084 32.9797Z" fill="#070404"/>
</g>
</g>
</svg>
