<svg width="74" height="61" viewBox="0 0 74 61" fill="none" xmlns="http://www.w3.org/2000/svg">
<mask id="mask0_11_589" style="mask-type:luminance" maskUnits="userSpaceOnUse" x="0" y="0" width="74" height="61">
<path d="M73.3333 0.333496H0V60.3335H73.3333V0.333496Z" fill="white"/>
</mask>
<g mask="url(#mask0_11_589)">
<mask id="mask1_11_589" style="mask-type:luminance" maskUnits="userSpaceOnUse" x="0" y="0" width="73" height="60">
<path d="M0.390625 0.4375H72.3906V59.2604H0.390625V0.4375Z" fill="white"/>
</mask>
<g mask="url(#mask1_11_589)">
<path d="M64.9583 15.3852C65 16.0207 65 16.6561 65 17.2915C65 36.7811 50.1719 59.255 23.0625 59.255V59.2446C15.0573 59.2602 7.21354 56.9634 0.46875 52.6353C1.63542 52.7759 2.80729 52.8436 3.97917 52.8488C10.6146 52.854 17.0625 50.6248 22.2865 46.5207C15.9792 46.4009 10.4479 42.2863 8.51563 36.2759C10.724 36.703 13 36.6196 15.1667 36.0259C8.29167 34.6352 3.34375 28.5884 3.34375 21.5675C3.34375 21.4998 3.34375 21.4425 3.34375 21.38C5.39583 22.5207 7.6875 23.1561 10.0365 23.2238C3.55729 18.8957 1.5625 10.2759 5.47396 3.53108C12.9583 12.7498 24 18.3488 35.849 18.9425C34.6615 13.8175 36.2865 8.45296 40.1146 4.84879C46.0521 -0.734544 55.3854 -0.448086 60.9688 5.48941C64.2708 4.83837 67.4323 3.62483 70.3281 1.91129C69.2292 5.32275 66.9271 8.22379 63.849 10.0675C66.7708 9.72379 69.625 8.93733 72.3125 7.74462C70.3333 10.7134 67.8385 13.2967 64.9583 15.3852Z" fill="#070404"/>
</g>
</g>
</svg>
