
<svg width="31" height="22" viewBox="0 0 31 22" fill="none" xmlns="http://www.w3.org/2000/svg">
<mask id="mask0_11_31" style="mask-type:luminance" maskUnits="userSpaceOnUse" x="0" y="0" width="31" height="22">
<path d="M0.599121 0.182129H30.3335V21.6665H0.599121V0.182129Z" fill="white"/>
</mask>
<g mask="url(#mask0_11_31)">
<path d="M15.599 0.182129C15.8229 0.182129 16.0469 0.327963 16.1979 0.479004L30.1615 19.6873C30.3125 19.9113 30.3854 20.2134 30.2396 20.4373C30.0886 20.6613 29.8646 20.8123 29.5677 20.8123H1.63544C1.33336 20.8123 1.1094 20.6613 0.958355 20.4373C0.812521 20.2134 0.885437 19.9113 1.03648 19.6873L15 0.479004C15.1511 0.327963 15.375 0.182129 15.599 0.182129ZM28.0729 19.3905L15.599 2.19775L3.12502 19.3905H28.0729Z" fill="black"/>
</g>
</svg>
