<svg width="472" height="129" viewBox="0 0 472 129" fill="none" xmlns="http://www.w3.org/2000/svg">
<path d="M66.776 115.12C66.4427 115.187 66.1041 115.255 65.7656 115.323C65.7812 115.38 65.7968 115.437 65.8125 115.495C66.151 115.365 66.4896 115.229 66.8177 115.099C66.7656 115.01 66.7135 114.922 66.6562 114.839C66.7187 114.828 66.776 114.818 66.8333 114.807C66.8125 114.911 66.7968 115.016 66.776 115.12ZM63.9791 99.8802L63.9896 99.7396C63.9896 99.7396 63.9896 99.8229 64 99.8125C63.9896 99.8333 63.9843 99.8594 63.9791 99.8802ZM67.3906 90.3698C67.9271 90.1198 68.2864 89.8229 67.9166 89.1406C67.776 88.875 67.8437 88.4948 67.8229 88.1614C67.9791 87.9948 68.1406 87.8229 68.3021 87.6562C68.4583 87.5364 68.6146 87.4114 68.776 87.2917C68.7916 87.3073 68.8073 87.3229 68.8229 87.3385C68.6666 87.4583 68.5052 87.5833 68.3489 87.7031C68.1927 87.8802 68.0364 88.0521 67.875 88.2239C67.4479 88.7396 67.0208 89.2604 66.5937 89.7812C66.7864 86.4062 68.9843 84.2812 70.9739 82.0364C69.7396 82.5573 68.5 83.0833 67.2604 83.6042L67.2968 83.651C70.0781 80.9948 72.8229 78.2969 75.6562 75.7031C77.8073 73.7292 80.0937 71.901 82.2864 69.9635C82.6198 69.6667 82.7604 69.1458 82.9896 68.7292L82.9271 68.7864C83.8854 68.3646 84.8906 68.0208 85.776 67.4792C86.1302 67.2604 86.2187 66.5989 86.4323 66.1406L86.375 66.2239C87.8593 66.5781 88.7656 65.1823 90.3854 65.026C89.6302 66.3229 88.8385 67.4792 88.25 68.7239C86.9583 71.4739 84.7187 73.6771 83.7552 76.6042C83.5833 77.1354 83.5625 77.7135 83.4687 78.2656L83.3437 78.2812L83.4218 78.2135C83.7031 78.0833 83.9896 77.9583 84.2708 77.8281L84.2135 77.776C83.4062 79.2917 82.625 80.8281 81.7656 82.3073C81.6406 82.5208 81.0937 82.4531 80.7916 82.6094C80.7187 82.6458 80.8437 83.0677 80.875 83.3125L80.9271 83.2656C80.6718 83.6927 80.1666 83.8802 80.2968 84.6406C80.4166 85.3385 79.9583 86.1354 79.7604 86.8906L79.8125 86.9114C78.9218 88.0989 78.0521 89.3021 77.1302 90.4687C76.4375 91.3385 75.6771 92.1562 74.9427 93C74.9427 93.0052 74.9114 93 74.9114 93C74.4531 93.6979 74 94.3958 73.5416 95.0937C73.2396 95.349 72.9323 95.6094 72.6302 95.8698C72.5156 96.0208 72.401 96.1719 72.2864 96.3229C72.0416 96.4531 71.8021 96.5833 71.5625 96.7083C71.5885 96.7239 71.6093 96.7396 71.6354 96.7604C71.6198 96.7187 71.6093 96.6719 71.5989 96.6302C71.8177 96.5208 72.0312 96.4115 72.25 96.3021C72.3593 96.1406 72.4687 95.9739 72.5781 95.8125C72.8854 95.5573 73.1927 95.3021 73.5 95.0469C73.9375 95.3698 74.3802 95.6979 74.8177 96.0208L74.776 95.9635C73.7083 98.4687 71.9635 100.552 70.2864 102.609C69.2239 103.917 69.2708 105.396 68.776 106.771C68.6771 107.047 69.2083 107.552 69.4323 107.922C69.0729 108.49 68.7239 109.042 68.375 109.594L68.3333 109.542C67.9791 109.891 67.4687 110.219 68.3698 110.568C68.8437 110.755 69.0364 111.109 68.4479 111.464C68.2187 112.016 67.9843 112.568 67.7552 113.115C67.7968 113.12 67.8333 113.13 67.8698 113.141C67.8333 113.151 67.8021 113.161 67.7656 113.177C67.7812 113.135 67.7916 113.099 67.8021 113.062C68.651 112.781 68.7604 112.203 68.4479 111.453C69.1875 111.594 69.5573 111.182 69.9739 110.625C71.3177 108.812 72.6979 107.016 74.151 105.286C74.9583 104.328 75.9271 103.5 76.8593 102.651C78.4114 101.234 80.0625 99.9167 81.5521 98.4375C83.3437 96.6614 84.8802 94.5937 86.7968 92.9687C87.8854 92.0365 88.4583 90.6562 89.7552 89.9687C90.7343 89.4479 91.5989 88.8125 91.4323 87.3958C91.8958 87.5364 92.3177 87.7292 92.3593 87.6667C93.5468 85.8594 95.7135 85.4792 97.3229 84.2604C101.344 81.2135 105.599 78.4687 109.703 75.526C110.698 74.8125 111.49 73.8073 112.37 72.9323C112.469 72.8333 112.536 72.5937 112.615 72.5937C113.786 72.6562 114.13 71.3854 115.073 71.0885C115.104 71.0729 115.141 71.0573 115.172 71.0469C115.125 71.0469 115.078 71.0469 115.031 71.0469C115.589 70.6354 116.156 69.8698 116.708 69.8802C118.396 69.9219 119.417 68.8229 120.656 68.0312C123.328 66.3229 126.151 64.9062 129.151 63.6667C130.255 98.5052 99.3593 133.682 57.6614 128.026C57.4062 127.047 57.151 126.057 56.901 125.068C57.0312 125.047 57.1458 125.021 57.2656 124.995C57.1614 125.021 57.0521 125.047 56.9479 125.073C56.7291 125.51 56.5156 125.943 56.2968 126.38L56.2604 126.328C55.8489 126.807 55.4375 127.281 55 127.781C53.776 127.458 52.6979 127.177 51.2552 126.792C52.8229 124.453 54.2552 122.359 55.6302 120.234C56.6041 118.734 57.5 117.193 58.4323 115.672L58.375 115.745C58.6875 115.589 58.9948 115.432 59.3021 115.276L59.25 115.323C59.2916 115.266 59.375 115.203 59.3646 115.151C59.3489 115.031 59.2864 114.917 59.2448 114.802L59.3021 114.859C59.5573 114.625 59.8073 114.391 60.1979 114.026C59.8958 113.859 59.6458 113.724 59.1562 113.448C60.1198 112.792 60.9739 112.214 61.9739 111.536C62.4323 111.693 62.6562 111.979 62.3646 112.714C62.0208 113.599 61.8906 114.568 61.6771 115.51C61.6823 115.969 61.6823 116.411 61.6823 116.859C60.2968 117.359 60.1823 118.474 60.2968 119.703C60.2916 119.703 60.1666 119.609 60.1666 119.609L60.2552 119.703C60.7135 118.74 61.1718 117.771 61.625 116.792C61.625 116.344 61.6302 115.901 61.6354 115.464C61.9843 115.135 62.4635 114.87 62.6614 114.469C63.2135 113.312 63.6666 112.109 64.1354 110.922C64.3958 110.255 64.375 110.25 63.4479 109.375C63.6614 109.036 63.8854 108.682 64.1093 108.328L64.0625 108.38C64.2448 108.031 64.4062 107.667 64.6198 107.344C64.9687 106.833 65.3541 106.344 65.7239 105.849L65.6875 105.781C65.8073 105.885 65.9271 105.984 66.0468 106.083C66.0989 105.979 66.1458 105.875 66.1979 105.776L66.1771 105.833C66.4218 105.427 66.6666 105.016 66.9114 104.604L66.9583 104.661C67.1823 104.505 67.5573 104.385 67.6146 104.177C68.276 101.927 69.8385 100.203 71.0156 98.2552C71.3646 98.1406 71.7187 98.0208 72.0625 97.9062C72.0781 97.9375 72.0989 97.9687 72.1146 97.9948C72.1302 97.9479 72.1406 97.9062 72.151 97.8594C71.7708 97.9896 71.3854 98.1198 71.0052 98.25C70.8489 98.1406 70.6771 97.9219 70.5468 97.9427C70.3698 97.9792 70.1771 98.1667 70.0833 98.3385C68.7812 100.641 67.2656 102.724 65.3021 104.568C63.401 106.365 61.9062 108.599 60.2448 110.646C58.776 112.458 57.3281 114.281 55.6198 115.964C55.9635 114.932 56.3125 113.906 56.6562 112.875C56.6823 112.807 56.75 112.703 56.7291 112.682C55.8021 111.604 56.4687 110.698 57.0156 109.771C57.5937 108.786 58.1614 107.802 58.7187 106.802C58.9218 106.432 59.2083 106.026 59.2083 105.635C59.2083 105.328 58.8333 105.016 58.625 104.708L58.651 104.745C59.1823 104.453 59.7135 104.156 60.4948 103.724C60.1198 103.479 59.8906 103.323 59.6614 103.172L59.7135 103.219C60.0416 101.198 61.0104 99.5364 62.4166 98.0573C62.9635 97.4844 63.2187 96.6354 63.6354 95.9271C64.026 95.2604 64.4479 94.6094 64.875 93.9583C65.1406 93.5469 65.6718 93.1562 65.6718 92.75C65.6771 91.8073 66.0052 91.3646 66.9218 91.1823C67.1458 91.1406 67.276 90.6198 67.4479 90.3177L67.3906 90.3698Z" fill="white"/>
<path d="M59.4531 32.8281C59.4427 32.7865 59.4479 32.724 59.4219 32.7031C59.375 32.6771 59.3125 32.6771 59.2604 32.6667C59.2708 32.7396 59.2864 32.8125 59.2969 32.8854C59.3489 32.8646 59.401 32.849 59.4531 32.8281ZM28.9375 62.5417C29.401 62.1719 29.9114 61.849 30.3177 61.4219C31.0937 60.6146 31.8021 59.7448 32.5364 58.8958C32.5312 58.724 32.5312 58.5573 32.526 58.3854C32.4323 57.901 32.3385 57.4167 32.2031 56.7083C31.0312 58.8281 29.9896 60.7083 28.9739 62.599L29.0416 62.7083L28.9375 62.5417ZM44.4896 38.8125C44.75 38.5573 45.0104 38.3021 45.276 38.0469C45.1979 37.9792 45.1198 37.9115 45.0416 37.8438C44.8489 38.1823 44.651 38.5208 44.4635 38.8646C44.5 38.8958 44.5416 38.9271 44.5781 38.9583C44.5521 38.9531 44.5104 38.9583 44.5052 38.9479C44.4948 38.9063 44.4948 38.8594 44.4896 38.8125ZM42.3437 43.5938C42.4323 43.5208 42.5156 43.4531 42.6041 43.3802C42.5156 43.4635 42.4323 43.5521 42.3489 43.651L42.4427 43.75L42.3437 43.5938ZM80.3385 13.7396C80.3802 13.5625 80.4271 13.3854 80.4739 13.2083C80.8229 12.8594 81.1666 12.5156 81.5104 12.1719C82.3646 11.4427 83.2135 10.7135 84.0625 9.97396C84.0937 9.95313 84.125 9.93229 84.1562 9.91146C84.1094 9.92188 84.0573 9.92709 84.0104 9.9375C85.2291 9.16667 86.4427 8.39063 87.6562 7.61979C87.6979 7.56771 87.7864 7.50521 87.776 7.45834C87.7552 7.35417 87.6927 7.25 87.651 7.14584C88.276 6.73438 88.901 6.32292 89.5312 5.91146C89.4739 5.77604 89.4219 5.64063 89.3646 5.51042C88.7396 5.65104 88.0885 5.71875 87.5 5.95313C86.8073 6.23959 86.1719 6.66667 85.5156 7.03125L85.4739 7.08854C85.6562 6.70834 85.8333 6.32813 86.0052 5.94271C86.026 5.96354 86.0469 5.97917 86.0677 6C83.7344 6.75 82.4531 8.70834 80.7916 10.2135C81.0937 11.026 81.3177 11.6146 81.5156 12.1823C79.5364 11.0885 80.0104 13.3698 79.1927 13.8698C79.4531 13.8281 79.7135 13.7813 79.9739 13.7396C80.0052 13.6406 80.0416 13.5417 80.0781 13.4479C80.1666 13.5417 80.25 13.6406 80.3385 13.7396ZM77.7656 14.8438C77.8437 14.625 77.9219 14.4063 78 14.1927C77.9635 14.2396 77.9323 14.2865 77.8958 14.3333C77.875 14.25 77.8489 14.1719 77.8281 14.0885C77.8802 14.1198 77.9271 14.1458 77.9791 14.1771C77.9271 14.4167 77.875 14.6563 77.8229 14.901C77.7291 15.1406 77.6354 15.3802 77.5416 15.6198C76.9896 15.2135 76.4531 14.9219 76.0625 15.8021C74.9739 16.5885 73.5729 17.1302 73.5469 19.1042C74.2864 18.5417 74.8333 18.1302 75.3802 17.724L75.2969 17.8385L75.3906 17.7552C75.75 17.2396 76.1094 16.7188 76.4739 16.1979C76.8229 15.9896 77.1666 15.7813 77.5 15.5469C77.5885 15.3125 77.6771 15.0781 77.7656 14.8438ZM61.3906 18.9896C61.625 18.9583 61.8594 18.9219 62.0937 18.8854C62.1198 18.6146 62.1458 18.3438 62.1719 18.0677C62.1823 18.1042 62.1979 18.1406 62.2083 18.1771C62.1875 18.1458 62.1614 18.1146 62.1458 18.0833C62.1354 18.3385 62.125 18.5938 62.1094 18.8438C61.8646 18.9115 61.625 18.9792 61.3854 19.0573C61.1823 19.2344 60.9791 19.4115 60.7708 19.5885C60.3906 20.2031 60.0052 20.8125 59.6198 21.4271L59.6666 21.3646C57.4114 22.849 55.5937 24.8021 53.8906 26.8594C53.7031 27.0833 53.7864 27.5313 53.7396 27.875C53.2083 28.0573 52.6719 28.2396 52.1406 28.4219C52.0729 28.8177 52.0052 29.2135 51.9375 29.6042C50.0469 30.9167 48.8385 32.7969 47.6666 34.7083C47.4739 34.849 47.2812 34.9948 47.0937 35.1406C46.7239 35.3281 46.3594 35.5156 45.9948 35.7083C46.0521 35.9115 46.1094 36.1094 46.1666 36.3125C46.1979 36.2969 46.2344 36.2813 46.2656 36.2708C46.1771 36.0781 46.0833 35.8854 45.9948 35.6979C46.3385 35.5 46.6823 35.2969 47.0364 35.1042C47.2344 34.9531 47.4271 34.8021 47.6198 34.6563C48.1354 34.7656 48.6562 34.875 48.8125 34.9063C49.4896 34.125 49.9427 33.5885 50.401 33.0573C51.1979 32.1354 52.3021 31.4063 52.3385 30C52.3854 29.9583 52.4739 29.9115 52.4687 29.8802C52.4427 29.7708 52.3906 29.6667 52.3437 29.5573C52.2812 29.1771 52.2135 28.7969 52.1458 28.4167C52.8333 28.6667 53.5156 28.9167 53.6927 27.8281C54.3437 27.8281 54.9948 27.8281 55.6406 27.8281C55.6406 28.1198 55.6719 28.2083 55.6406 28.25C53.5416 31.0677 51.4271 33.875 49.3385 36.6979C49.0052 37.151 48.2864 37.6823 49.3698 38.1354C49.3802 38.4583 49.3906 38.7813 49.3958 39.1042C48.9427 39.026 48.4843 38.9479 47.9479 38.8594C47.6718 39.526 47.3906 40.2135 47.0625 41.0104C48.7396 41.2448 49.0208 40.1302 49.3333 39.0469C49.6302 38.7448 49.9323 38.4375 50.2291 38.1302C50.8594 36.9948 51.6094 35.9896 52.5416 35.0521C53.8646 33.7292 54.8802 32.1146 56.1458 30.7292C60.2344 26.2708 64.1666 21.651 68.8229 17.7604C71.1927 15.7813 72.6979 12.9583 75.3646 11.3021C75.75 9.34896 77.526 8.65625 78.8177 7.54167C79.6614 6.8125 80.4583 6.11459 80.0416 4.84375C80.4375 4.77084 80.8333 4.69792 81.2239 4.625C81.401 4.46354 81.5781 4.30209 81.7552 4.14584L81.8333 4.05209C81.8333 4.05209 81.8125 4.1875 81.8073 4.1875C81.6302 4.35417 81.4479 4.52084 81.2708 4.68229C80.8646 4.72917 80.4583 4.78125 80.0469 4.82813C79.2239 5.16667 78.3541 5.42708 77.5833 5.86459C75.7083 6.93229 73.8802 8.07813 71.9323 9.25521C72.2031 9.96875 72.6406 10.8438 71.3333 11.0729L71.3021 11.0156H71.3854C71.1354 12.4219 69.8594 10.9896 69.2812 11.8281C69.5989 12.0938 69.9114 12.3542 70.375 12.7448C69.7083 13.1198 69.2239 13.3906 68.7448 13.6615C68.5885 13.5052 68.4323 13.349 68.2812 13.1927C68.2135 12.9375 68.1458 12.6771 68.0833 12.4219C68.1146 12.4635 68.151 12.5052 68.1875 12.5521C68.151 12.5156 68.1146 12.4792 68.0833 12.4583C68.0052 12.7188 67.9323 12.974 67.8541 13.2344C67.5052 13.5469 67.1562 13.8594 66.8073 14.1771L66.8541 14.2188C65.9479 14.9792 65.0416 15.7396 64.1354 16.5C64.9114 17.8854 63.2864 18.2656 62.9166 19.1719C62.6823 19.7552 61.7291 20.7552 60.7552 19.6198C60.9687 19.4115 61.1771 19.2031 61.3906 18.9896ZM72.1823 20.0417L72.2812 20.0573C72.2812 20.0573 72.1354 20.0833 72.1458 20.0781C72.1302 20.0885 72.1146 20.1042 72.0989 20.1146C72.1302 20.0938 72.1562 20.0677 72.1823 20.0417ZM52.7187 37C52.7291 37.0521 52.7448 37.099 52.7552 37.1458C52.7344 37.099 52.7135 37.0521 52.6927 37.0052C52.5156 37.2292 52.3333 37.4479 52.1562 37.6719C52.1823 37.7969 52.2083 37.9167 52.2344 38.0417C52.1979 37.9219 52.1614 37.8073 52.1354 37.6875C52.3281 37.4583 52.5208 37.2292 52.7187 37ZM35.1875 53.2188C35.1875 53.2188 35.2396 53.2656 35.2396 53.2604C35.0521 53.4167 34.8646 53.5729 34.6823 53.724C34.1458 54.3385 33.5573 54.9219 33.0833 55.5833C32.6771 56.1458 33.0052 56.5573 33.7083 56.9948C34.0416 55.8021 34.3385 54.7396 34.6406 53.6823C34.8229 53.526 35.0052 53.375 35.1875 53.2188ZM62.0521 33.7135C60.625 34.5833 59.2135 35.4792 57.7656 36.3177C57.3489 36.5573 56.9375 37.276 56.3333 36.5469C56.6354 36.2813 56.9271 35.9844 57.2604 35.7604C57.8541 35.3646 57.75 35.0208 57.25 34.6667C57.5208 34.5469 57.7916 34.4271 58.0625 34.3073C58.3698 34.1875 58.6771 34.0677 58.9791 33.9479C58.7812 33.7865 58.5781 33.6198 58.375 33.4583C58.2864 33.75 58.1927 34.0417 58.0989 34.3281C57.8177 34.4323 57.5312 34.5313 57.25 34.6354C57 35.3073 55.8594 35.599 56.3958 36.6094C55 36.5938 54.2083 37.3854 53.2344 38.349C51.6979 39.8698 50.7083 41.8906 49.0052 43.1302C48.0104 43.8542 47.2031 45.3073 45.4948 44.9583C45.1354 44.8854 44.625 45.5625 44.1823 45.8958L44.2291 45.9635C44.0625 45.9583 43.8906 45.9531 43.7187 45.9531L43.776 45.8906C43.6146 46.1979 43.4531 46.5052 43.2969 46.8125L43.3073 46.7813C42.3541 47.7969 41.401 48.8177 40.4531 49.8333C40.3594 49.7656 40.2604 49.6979 40.1666 49.6302C41.3802 47.724 42.5989 45.8125 43.8906 43.7917C39.3385 45.7292 40.0885 46.1875 37.0781 50.1406C37.1719 50.3646 37.276 50.6198 37.3958 50.8698C37.4844 51.0625 37.5937 51.25 37.6823 51.4271C34.9479 57.1563 31.4271 62.3646 27.4739 67.5781C27.7187 66.276 27.9375 65.1302 28.1562 63.9896C28.401 63.9219 28.6458 63.8542 28.8802 63.7917C28.8594 63.875 28.8437 63.9479 28.8281 64.0208C28.8437 63.9531 28.8541 63.8906 28.8698 63.8229C28.6458 63.8906 28.4219 63.9583 28.1979 64.0313C28.1354 64.0677 28.0469 64.0885 28.0208 64.1458C25.7135 68.6302 22.9062 72.8698 21.5 77.776C21.5052 77.7656 21.5156 77.7292 21.5156 77.7292C20.8958 78.9896 20.1719 80.2083 19.6719 81.5104C18.5781 84.3438 16.8333 86.9323 16.401 90.0156L16.4531 90.0677C15.7812 91.901 15.0729 93.7188 14.4479 95.5729C13.9531 97.0365 13.5625 98.5313 12.9844 100.495C11.5312 97.9427 10.3281 95.7604 9.05727 93.625C8.52081 92.7188 7.80206 91.9271 7.20831 91.0521C6.72914 90.349 6.19789 89.6458 5.89581 88.8646C2.10935 79.1146 0.229143 69.026 1.22393 58.5729C2.59893 44.1458 8.09893 31.4635 17.9739 20.776C28.4635 9.42188 41.5573 3.03125 56.7291 0.817711C64.875 -0.374997 73 0.0364613 81 2.10417C82.8541 2.57813 84.6875 3.15625 86.5104 3.73959C86.8646 3.85417 87.1406 4.20834 87.4583 4.44792C87.4844 4.47396 87.5052 4.5 87.5312 4.53125C87.5208 4.47917 87.5104 4.42709 87.5 4.38021C90.4375 5.60938 93.375 6.82813 96.3073 8.07813C96.8646 8.3125 97.3281 8.68229 96.7239 9.34896L96.776 9.29167C96.4583 9.45313 96.1406 9.61459 95.8229 9.77084L95.901 9.70834C93.5937 10.4479 91.3125 11.1406 89.7135 13.2396C89.0625 14.1042 87.875 14.5625 86.9219 15.1927C85.7969 15.9271 84.5469 16.5156 83.5521 17.401C80.1979 20.3854 76.9375 23.4792 73.6406 26.5313C72.875 27.2396 72.1094 27.9427 71.3437 28.651L71.375 28.7135C71.2031 28.7083 71.0312 28.7083 70.8541 28.7031L70.9114 28.6667C70.75 28.8229 70.5885 28.9844 70.4271 29.1458L70.4427 29.099C69.8594 29.7344 69.2969 30.3802 68.6979 31C68.1719 31.5417 67.5833 31.9427 66.8177 31.3854L66.8021 31.3906C67.4531 30.8333 68.1041 30.2708 68.7552 29.7083C68.901 29.4688 69.0469 29.2344 69.1927 29C69.3281 28.8646 69.4687 28.7292 69.6041 28.599C69.7864 28.4896 69.9635 28.3802 70.1458 28.2708C70.2239 28.0521 70.3125 27.8281 70.3906 27.6094L70.5208 27.6198C70.5208 27.6198 70.4062 27.6823 70.4114 27.6927C70.3437 27.901 70.276 28.1042 70.1979 28.3073C70.0156 28.4219 69.8333 28.5365 69.651 28.6563C69.5 28.7865 69.3541 28.9167 69.2135 29.0521C69.0573 29.2969 68.9062 29.5365 68.75 29.776C66.7916 30.1667 65.7552 31.8333 64.3698 33C63.0937 34.0781 61.9219 35.2813 60.4635 36.2552C61.0052 35.3958 61.5469 34.5365 62.0833 33.6719C62.0781 33.6719 62.0104 33.5938 62.0104 33.5938L62.0521 33.7135Z" fill="white"/>
<path d="M41.8489 88.6094L41.7083 88.5938L41.7656 88.75L41.8489 88.6094ZM83.2708 32.5417L83.1875 32.375L83.1198 32.5469L83.2708 32.5417ZM85.8333 26L85.6875 25.9948L85.7448 26.1615L85.8333 26ZM59.2344 76.0469C59.1354 76 59.0416 75.9583 58.9479 75.9115C58.901 76.0313 58.8125 76.151 58.8281 76.2604C58.8333 76.3177 59.0208 76.349 59.125 76.3906C59.1614 76.276 59.1979 76.1615 59.2344 76.0469ZM68.0208 62.7188C67.8594 62.8281 67.6666 62.9115 67.5469 63.0573C67.4948 63.1198 67.5885 63.3021 67.6146 63.4323C67.8281 63.3021 68.0416 63.1719 68.2552 63.0417C68.1875 62.9479 68.1198 62.8594 68.0208 62.7188ZM68.7604 61.2708C68.8385 61.3698 68.9114 61.474 68.9896 61.5781C69.1146 61.5365 69.3281 61.5365 69.3594 61.4583C69.4427 61.2448 69.4583 61 69.4948 60.7708C69.25 60.9375 69.0052 61.1042 68.7604 61.2708ZM86.7864 24.724C86.8958 24.8333 87 24.9375 87.1094 25.0417C88.4166 23.8854 89.7239 22.724 91.0312 21.5677C89.0625 21.9635 88.0781 23.526 86.7864 24.724ZM97.0989 19.5313C96.8073 19.8854 96.5156 20.2344 96.2239 20.5885C96.3594 20.6615 96.4948 20.7292 96.625 20.8021C96.7656 20.3958 96.9062 19.9896 97.0416 19.5885L97.1771 19.5938L97.0989 19.5313ZM87.9844 27.651C87.8125 27.9375 87.6354 28.224 87.4583 28.5052C87.5781 28.5417 87.7031 28.5729 87.8229 28.6094C87.8594 28.3073 87.8906 28.0052 87.9219 27.7135C87.9531 27.7396 87.9896 27.7604 88.0208 27.7865C88.0104 27.7396 87.9948 27.6979 87.9844 27.651ZM60.0781 49.9271L60.1094 49.8125L60.0937 49.8802C60.2708 50.2344 60.4531 50.5885 60.6354 50.9427C60.7448 50.8542 60.8489 50.7656 60.9583 50.6771C60.6614 50.4323 60.3698 50.1875 60.0781 49.9271ZM47.0104 75.3854C47.1458 75.3333 47.2812 75.2865 47.0937 75.3542C47.25 75.2604 47.1146 75.3438 46.9844 75.4271L47.0573 75.5L47.0104 75.3854ZM93.2604 25.5156C93.2604 25.5156 93.2448 25.5781 93.25 25.5833L93.2656 25.6823L93.2604 25.5156ZM87.8177 33.4844C87.9114 33.3125 88.0104 33.1406 88.1041 32.9688C88.2448 32.8229 88.3854 32.6771 88.526 32.5313C89.3854 32.5417 89.8281 32.1302 89.8125 31.2604C89.9687 31.1094 90.1198 30.9583 90.2708 30.8125C91.2916 30.7604 91.1041 29.6615 91.5416 29.2917C93.0052 28.0573 94.6771 27.0729 96.2656 25.9948C96.0104 25.4844 97.2291 24.5469 95.7864 24.375C95.2396 25.1302 96.0312 25.4844 96.276 26C95.276 25.5156 94.4323 25.625 93.6614 26.5104C93.4791 26.724 92.9739 26.6615 92.6198 26.7292C92.5885 26.7552 92.5521 26.7813 92.5208 26.8021C92.5729 26.7917 92.625 26.7813 92.6771 26.7708C92.3333 27.1302 92.0104 27.5156 91.6354 27.8385C91.4114 28.0313 90.9219 28.0729 90.8646 28.2708C90.5885 29.276 89.7187 29.5677 88.9687 30.0104C87.9844 29.2083 87.8229 30.2969 87.3646 30.7031L87.3229 30.6563C86.6354 31.099 85.7656 31.3698 85.7135 32.401L85.6927 32.4115C85.526 33.0625 85.3541 33.7083 85.1875 34.3542C84.3333 34.3333 84.401 34.9167 84.4479 35.4844C84.0625 35.5417 83.6614 35.5521 83.2969 35.6667C82.9844 35.7656 82.7083 35.9896 82.4166 36.1615C82.3021 36.4219 82.1927 36.6823 82.0781 36.9427C81.3854 37.7813 80.6823 38.6042 80.0104 39.4583C79.6614 39.8958 79.4114 40.4115 79.0416 40.8229C77.9166 42.0729 76.7552 43.2865 75.6094 44.5208C75.4583 44.7135 75.3021 44.9063 75.151 45.1042C74.526 45.5469 73.901 45.9948 73.276 46.4479C73.0833 46.9271 72.8958 47.4063 72.7031 47.8854C72.7916 47.9063 72.8854 47.9271 72.9739 47.9427C73.0781 47.4427 73.1823 46.9375 73.2864 46.4375C74.4531 46.6354 74.7656 46.401 75.1094 45.0625C75.2656 44.8594 75.4219 44.6563 75.5833 44.4531C75.651 44.4583 75.7396 44.4948 75.7916 44.4688C78.7812 42.9531 80.25 40.0469 82.125 37.5156C82.2135 37.401 82.0729 37.1094 82.0364 36.901C82.1719 36.651 82.3073 36.4063 82.4427 36.1563C83.3906 36.6927 83.8073 35.7865 84.4114 35.401C84.6562 35.0365 84.8958 34.6719 85.1406 34.3073C86.0416 33.9427 86.4427 32.6198 87.7135 32.9635C87.7656 33.1302 87.8229 33.2969 87.8646 33.4635L87.7031 33.4792L87.8177 33.4844ZM72.6041 57.3854L72.7344 57.3646C72.7344 57.3646 72.6302 57.4427 72.6302 57.4479C72.5052 57.6927 72.375 57.9375 72.2448 58.1823C71.0156 58 70.7239 58.9688 70.2864 59.7604C71.1719 59.4948 71.8073 58.9323 72.2187 58.1094C72.3489 57.8646 72.4791 57.625 72.6041 57.3854ZM82.9635 51.9323C82.4427 52.2917 81.9219 52.6458 81.2656 53.0938C81.4739 53.3906 81.6458 53.6406 81.8802 53.974C81.1041 54.5365 80.7969 53.724 80.1458 53.4115C81.4479 51.9583 82.7031 50.5625 83.9583 49.1667C83.8958 49.0938 83.8333 49.026 83.7656 48.9531C81.0937 51.4479 78.3594 53.8854 75.7604 56.4531C73.4948 58.6927 71.3646 61.0729 69.2083 63.4219C68.5521 64.1302 68.2291 65.0573 67.5208 65.8177C66.8646 66.5208 66.2396 66.9792 65.3906 67.2813C65.9271 66.4167 66.4687 65.5469 67.0052 64.6771C65.4635 65.5521 64.0625 67.5573 63.5937 69.1927C63.3333 69.25 63.0729 69.3021 62.8125 69.3594C62.6927 69.8021 62.5729 70.2448 62.3958 70.8906C63.4427 70.3698 63.0312 69.8542 62.8125 69.3594C63.0625 69.2917 63.3125 69.224 63.5625 69.151C64.1875 68.5052 64.8177 67.8542 65.4427 67.2031C64.7916 69.5573 64.0573 71.8646 62.0104 73.4583C61.7864 73.3177 61.5729 73.1719 61.3541 73.0208C61.4479 72.5469 61.5416 72.0729 61.6406 71.6042C61.6458 71.6042 61.75 71.6823 61.75 71.6823L61.6719 71.5938C61.3698 71.974 61.0677 72.3542 60.7656 72.7344C60.6094 73.1771 60.4583 73.6198 60.3073 74.0625C60.4323 74.0729 60.5573 74.0885 60.6823 74.1042C60.7083 73.6458 60.7396 73.1875 60.7708 72.7292C60.9791 72.8177 61.1875 72.901 61.3958 72.9844C61.625 73.1406 61.8489 73.2969 62.0781 73.4531C61.1146 74.8385 60.1823 76.25 59.1562 77.5885C58.9844 77.8125 58.4114 77.7344 57.9791 77.8021C55.7969 80.6354 53.5156 83.6719 51.151 86.6354C50.1094 87.9375 48.8489 89.0625 47.7708 90.3385C46.2344 92.1667 44.776 94.0677 43.2864 95.9375V95.8333L43.3437 95.8906C41.25 98.6979 39.1562 101.5 37.0677 104.307L37.1041 104.281C36.4375 102.698 37.1146 101.188 37.4791 99.7083C37.9375 97.8542 38.6927 96.0833 39.2448 94.2552C39.4375 93.6198 39.2656 92.8542 39.5156 92.2552C40.9583 88.7865 42.4844 85.349 43.9479 81.8906C44.2239 81.2448 44.3333 80.5313 44.5208 79.8542C45.3333 80.1615 45.6354 79.724 45.8646 78.8802C45.4271 78.8802 45.1094 78.8802 44.7916 78.8854C44.7604 78.9115 44.7291 78.9271 44.6979 78.9479C44.7448 78.9427 44.7969 78.9375 44.8437 78.9323C44.7552 79.2552 44.6614 79.5833 44.5729 79.9063C44.1406 79.9792 43.7031 80.0417 43.276 80.1354C42.8906 80.2188 42.5156 80.3438 42.1406 80.4583C42.1458 80.4635 42.1666 80.4792 42.1666 80.4792C42.651 79.7135 43.1823 78.9688 43.6041 78.1719C44.9635 75.6042 46.2187 72.9792 47.6458 70.4479C48.3229 69.25 49.2552 68.1771 50.1666 67.1302C51.0625 66.1146 51.3385 64.9635 51.2916 63.6823C51.2864 63.6927 51.2708 63.7396 51.2708 63.7396C51.875 64.4271 52.3281 64.2448 52.75 63.5208C53.3177 62.5313 53.9219 61.5625 54.526 60.599C55.6927 58.724 56.9166 56.8802 58.0312 54.974C58.4062 54.3333 58.526 53.5469 58.7656 52.8229C58.9323 52.6563 59.1041 52.4844 59.2708 52.3125C59.4583 52.099 59.651 51.8802 59.8437 51.6615C59.7864 51.6302 59.7291 51.599 59.6719 51.5677C59.5573 51.8333 59.4375 52.099 59.3177 52.3646C59.1458 52.5365 58.9791 52.7031 58.8073 52.8698C58.5 52.5417 58.2187 52.1823 57.875 51.8906C57.6562 51.7083 57.3489 51.6302 57.0781 51.5L57.1302 51.5521C57.2864 50.3021 58.0677 49.4792 58.9948 48.7552C58.9687 48.9167 58.9531 49.0677 58.9791 48.8594C59.0312 49.0781 58.9948 48.9375 58.9635 48.7969C59.2031 48.4219 59.4427 48.0521 59.6823 47.6823L59.6562 47.6146C60.2448 48.3438 60.8333 49.0677 61.5781 49.9896C62.2448 49.0104 62.7135 48.3177 63.1823 47.625L63.125 47.6927C64.125 46.5885 65.151 45.5052 66.1146 44.3698C67.8541 42.3229 69.5625 40.25 71.2812 38.1823C71.4791 38.0677 71.6771 37.9531 71.875 37.8385C71.9687 37.6146 72.0677 37.3906 72.1614 37.1667C72.0573 37.151 71.9479 37.1302 71.8385 37.1146C71.8646 37.3646 71.8854 37.6146 71.9062 37.8646C71.6927 37.8281 71.4844 37.7969 71.276 37.7656C71.1146 37.6406 70.9531 37.5104 70.7916 37.3854C69.5937 38.7396 69.0416 40.6979 67 41.1667L67.0677 41.2135C66.8906 41.2135 66.7135 41.2135 66.5416 41.2083L66.5989 41.1563C66.25 40.8125 65.8958 40.4688 65.5469 40.1302L65.5833 40.1771C65.8802 39.9531 66.1771 39.7344 66.4791 39.5104C66.4844 39.5104 66.5937 39.5208 66.5937 39.5208L66.4219 39.4896C67.9271 37.8333 69.4323 36.1875 70.9323 34.526C71.3021 34.1146 71.6302 33.6615 71.9791 33.2292L72.0469 33.25C72.3177 33.026 72.776 32.8438 72.8385 32.5677C73.3281 30.3958 74.9427 29.0104 76.4114 27.599C80.4166 23.7448 84.5156 19.9792 88.625 16.2292C90.6146 14.4115 92.7187 12.7135 94.7604 10.9375C95.1771 10.5729 95.5208 10.1198 95.901 9.70834L95.8229 9.77084C96.1406 9.61459 96.4583 9.45313 96.776 9.29167L96.7239 9.34896C97.7187 8.95313 98.4739 9.47917 99.2708 9.95834C100.271 10.5677 101.318 11.1146 102.536 11.7917C101.589 12.6615 100.875 13.3177 100.161 13.974C98.6666 14.9948 97.1562 15.9896 95.6927 17.0469C95.5156 17.1771 95.5781 17.6354 95.5312 17.9427C95.0937 18.1719 94.6562 18.401 94.2135 18.6302C94.2916 18.7344 94.3646 18.8333 94.4375 18.9375C94.7812 18.5885 95.1302 18.2396 95.4791 17.8854C96.8958 16.8802 98.3333 15.8958 99.7187 14.849C99.9531 14.6719 99.9844 14.2292 100.109 13.9115C100.568 13.7969 101.083 13.776 101.469 13.5417C103.302 12.4375 103.292 12.4219 105.302 14.0677C103.979 15.7708 102.729 17.4948 100.469 18.1198C100.365 18.1458 100.26 18.1615 100.151 18.1823C100.266 18.1719 100.375 18.1667 100.49 18.1563C100.5 18.5833 100.516 19.0104 100.516 19.4323C99.8698 19.3594 99.2396 19.2969 99.026 20.1302C98.8177 20.2188 98.6094 20.3177 98.4062 20.4167C98.3958 20.401 98.375 20.3802 98.3594 20.3542C98.5677 20.2708 98.776 20.1875 98.9896 20.1042C99.4896 19.8802 99.9948 19.6563 100.495 19.4271C101.641 18.7292 102.781 18.0313 103.922 17.3281C104.021 17.4635 104.12 17.5938 104.219 17.7292C102.755 18.8333 101.286 19.9323 99.8333 21.0521C99.276 21.4792 98.75 21.9479 98.2083 22.401L98.2396 22.4427C97.0677 22.4271 97.401 23.5052 96.7135 24.3594C97.4271 24.2188 97.8646 24.2656 98.0989 24.0677C99.1875 23.1563 100.141 22.0677 101.292 21.2552C103.219 19.8958 104.906 18.2292 106.917 16.9948C107.312 16.7552 108.021 16.7396 108.458 16.9219C109.094 17.1823 109.719 17.6354 110.172 18.1563C112.75 21.1094 115.297 24.0885 117.802 27.1042C118.12 27.4792 118.13 28.1146 118.281 28.6354C118.125 28.8125 117.964 28.9896 117.807 29.1719C117.01 29.3177 116.26 29.5365 115.901 30.4896C117.068 30.6042 117.495 29.9688 117.76 29.125C117.917 28.9427 118.078 28.7552 118.234 28.5729C119.276 29.7031 120.635 30.6094 120.969 32.4375C119.141 33.2813 117.245 34.0729 115.432 35.0208C112.016 36.8021 108.531 38.5 105.839 41.3646C105.531 41.6927 105.37 42.1563 105.135 42.5521C104.88 42.6771 104.63 42.8021 104.391 42.9271C104.385 42.9427 104.37 42.9635 104.359 42.9792C104.385 42.9635 104.417 42.9427 104.443 42.9219C104.661 42.7969 104.875 42.6719 105.094 42.5521C109.521 38.9063 114.531 36.2552 119.719 33.901C120.302 33.6406 120.953 33.5365 121.573 33.3594C121.667 33.5365 121.766 33.7135 121.865 33.8906C121.12 34.5469 120.38 35.1979 119.635 35.849H119.641C117.901 36.9219 116.156 37.974 114.432 39.0677C112.021 40.5938 109.667 42.2135 107.224 43.6875C104.969 45.0469 102.698 46.4167 100.312 47.5156C98.2448 48.4688 95.151 50.6146 93.3906 52.3906C92.3594 53.4375 91.0156 54.4948 89.6458 54.8021C87.6562 55.2396 86.2448 56.4896 84.5885 57.3906C83.7396 57.849 82.8854 58.3021 82.0312 58.7604L82.0781 58.8073C83.8229 56.8073 85.5677 54.8073 87.3073 52.8073L87.25 52.8594C87.2448 52.6875 87.2448 52.5208 87.2396 52.3542L87.3073 52.401C87.2969 52.3281 87.2448 52.2396 87.276 52.1927C87.7187 51.4323 88.1719 50.6771 88.6198 49.9167C87.3489 48.7865 89.3906 48.75 88.9844 47.7969C89.5416 48.1823 89.8281 48.375 90.1875 48.625C92.5573 45.5521 95.5 43.1042 98.4375 40.6458C98.5989 40.5104 98.7135 40.3281 98.8489 40.1667C99.8125 39.0573 100.703 38.0417 102.344 37.6927C103.682 37.4115 104.943 36.4948 106.083 35.6458C106.604 35.2604 106.745 34.3594 107.146 33.5156C104.646 34.349 102.229 34.8958 100.375 36.8854C99.3802 37.9531 97.8698 38.5208 96.7344 39.4896C95.901 40.1979 94.3073 40.3542 94.5677 42.026L94.6146 42.0104C94.4479 42.1771 94.2812 42.3438 94.1094 42.5156L94.125 42.526C93.8073 42.5521 93.401 42.4635 93.1927 42.6302C92.3073 43.3125 91.4791 44.0729 90.6406 44.8125C90.1041 45.2813 89.4791 45.6875 89.0625 46.25C87.5729 48.2448 86.2083 50.3438 83.7344 51.3125C83.4219 51.4375 83.1823 51.7604 82.9062 51.9896C82.9114 51.9896 82.9635 51.9323 82.9635 51.9323Z" fill="white"/>
<path d="M87.4062 64.3437C87.4114 65.1979 87.4271 65.3021 86.6302 65.401C85.7239 65.5156 86.5677 65.9948 86.375 66.2239L86.4323 66.1406C86.1354 66.1458 85.8437 66.1458 85.5468 66.151L85.5052 66.1719C84.7187 65.401 84.3229 66.151 83.8541 66.5989C83.8125 66.6458 83.7291 66.6979 83.7343 66.7344C83.7552 66.8437 83.8125 66.9427 83.8541 67.0469C83.5416 67.3229 83.2343 67.5989 82.9271 67.8698L82.9948 67.9219C82.8541 67.3854 82.7083 66.8489 82.5 66.0729C84.6041 64.4479 86.7656 62.7708 88.9218 61.0989C88.776 60.5 88.6198 59.8854 88.4739 59.2656C88.7343 59.2135 88.9948 59.1667 89.2604 59.1146C89.2135 59.0104 89.1718 58.9114 89.1302 58.8073C88.9271 58.9792 88.7291 59.151 88.526 59.3229C88.1875 59.3229 87.8489 59.3229 87.5104 59.3229C87.4635 59.2135 87.4114 59.0989 87.3646 58.9896C88.75 57.9271 90.0521 56.7239 91.5364 55.8281C94.125 54.2708 96.3333 52.1094 99.2812 51.0989C100.229 50.776 100.953 49.8437 101.828 49.2552C103.109 48.3906 104.427 47.5885 105.734 46.7552L105.682 46.6979C105.292 47.2604 104.984 47.9062 104.495 48.3698C101.766 50.9896 98.9896 53.5521 96.2448 56.151C95.5833 56.7812 95.0208 57.4219 94.7291 58.401C94.4896 59.1979 93.5729 59.7917 92.9635 60.4844C92.4427 61.0781 91.9375 61.6823 91.3541 62.3646C90.7187 62.0781 90.0521 61.9635 89.3854 62.8385C88.901 63.4739 88.0781 63.8594 87.4114 64.3542C87.4896 64.0989 87.5677 63.8437 87.6458 63.5885C87.5885 63.5781 87.5364 63.5677 87.4739 63.5521C87.4531 63.8177 87.4271 64.0781 87.4062 64.3437Z" fill="white"/>
<path d="M26.1614 86.2344C25.3229 87.1302 24.3854 87.9792 25.5 89.3281C25.651 89.5104 25.4531 90.0052 25.3698 90.3438C24.1927 95.3281 23.026 100.313 21.7969 105.286C21.6354 105.932 21.1302 106.495 20.7864 107.094H20.7916C20.2187 106.203 21.0677 105.318 20.7448 104.318C20.4687 103.474 20.8594 102.385 21.0416 101.422C21.2448 100.38 21.5 99.3438 21.8073 98.3229C22.5416 95.8906 23.2291 93.4323 24.1198 91.0573C24.5312 89.9635 23.6041 89.1406 23.9062 88.1563L23.9531 88.2031C23.9635 87.8125 23.9375 87.4115 23.9896 87.0208C24.1146 86.0677 24.276 85.1198 24.4531 84C24.8385 84.0521 25.5677 83.6406 25.9687 84.4896C26.2239 85.0417 27.1406 85.5677 26.1927 86.2865L26.1614 86.2344Z" fill="white"/>
<path d="M23.5833 78.0417C22.9739 78.4948 22.3594 78.9479 21.75 79.401L21.7083 79.4531C21.9583 78.8385 22.6041 78.1875 21.526 77.7188C21.5156 77.7292 21.5052 77.7656 21.5 77.776C23.1146 76.0208 24.2708 74.0052 25.0625 71.7344C25.3281 70.9896 25.3489 69.8073 26.6302 69.7708L26.5833 69.7188C25.7135 72.2813 25.25 75 23.6406 77.2813C23.5104 77.4635 23.6146 77.8177 23.6146 78.0938L23.5833 78.0417Z" fill="white"/>
<path d="M59.6823 47.6823C60.9635 46.0937 62.2812 44.5365 63.4948 42.901C63.9844 42.2448 64.5208 41.9948 65.276 42.0781L65.2239 42.0156C65.0833 42.4687 64.9427 42.9219 64.8073 43.375L64.8698 43.3177C63.6354 43.4219 63.7552 44.6563 63.2031 45.3281C63.3646 45.4531 63.526 45.5833 63.6875 45.7135L63.7239 45.6667C62.3021 45.9792 63.1458 46.9635 63.125 47.6927L63.1823 47.625C62.6094 47.7917 62.0364 47.9531 61.4635 48.1198C61.2969 48.125 61.1302 48.1302 60.9635 48.1354C60.526 47.9583 60.0885 47.7865 59.6562 47.6146L59.6823 47.6823Z" fill="white"/>
<path d="M109.687 44.1875C108.729 44.8437 107.766 45.4948 106.646 46.2552C107.375 43.9583 112.286 40.3021 115.526 40.0573C113.62 41.3646 111.844 42.5781 110.073 43.7917L110.135 43.7344C109.964 43.9062 109.792 44.0781 109.62 44.2448L109.687 44.1875Z" fill="white"/>
<path d="M48.2448 121.536C48.9218 120.406 49.5677 119.25 50.3021 118.156C50.4687 117.917 50.9531 117.885 51.2864 117.755L51.2968 117.75C50.2135 119.786 49.1302 121.823 48.0468 123.859L48.1041 123.917C47.9323 123.917 47.7656 123.917 47.5937 123.922L47.651 123.859C47.2916 124.354 46.9375 124.849 46.3229 125.698C46.3125 123.651 47.3229 122.594 48.25 121.505C48.25 121.646 48.25 121.776 48.2552 121.906C48.25 121.781 48.2448 121.661 48.2448 121.536Z" fill="white"/>
<path d="M51.2135 62.5104C50.9166 62.9375 50.1406 63.3802 51.2604 63.75C51.2708 63.7396 51.2864 63.6927 51.2916 63.6823C50.9062 64.3073 49.5104 64.0937 49.875 65.3646C49.3333 65.4739 48.7916 65.5885 48.25 65.6979C48.151 65.5416 48.0521 65.3854 47.9531 65.2291C48.4427 64.5104 48.9323 63.7916 49.4219 63.0781C49.4583 63.1406 49.4896 63.1979 49.526 63.2552C49.4739 63.2135 49.4219 63.1719 49.3698 63.125C49.8021 62.7187 50.2396 62.3125 50.6771 61.9114L50.6146 61.8489C50.8281 62.0833 51.0416 62.3177 51.2552 62.5521L51.2135 62.5104Z" fill="white"/>
<path d="M50.6771 61.9114C51.2708 60.9271 51.8229 59.9166 52.4948 58.9896C52.6406 58.7864 53.1979 58.8802 53.7343 58.8177C53.4948 60.8958 52.3125 61.6406 50.6146 61.8489L50.6771 61.9114Z" fill="white"/>
<path d="M47.6614 67.8177C47.4114 68.4635 47.1458 69.1094 46.9218 69.7656C46.6146 70.6406 46.6302 70.6458 45.2552 71.4375C45.7343 70.0208 46.1146 68.776 46.6041 67.5781C46.6614 67.4323 47.3021 67.5208 47.6718 67.5L47.6093 67.4427C47.5937 67.5833 47.5937 67.7239 47.6041 67.8646L47.6614 67.8177Z" fill="white"/>
<path d="M79.901 56.0885C78.9271 57.3177 77.9583 58.5469 76.9844 59.776C76.8698 59.6875 76.75 59.599 76.6302 59.5104C77.2916 58.0625 78.1875 56.7813 79.3646 55.7031C79.5416 55.8333 79.7239 55.9583 79.901 56.0885Z" fill="white"/>
<path d="M37.6927 80.4635C38.3385 79.2552 38.9843 78.0521 39.6302 76.8438C39.8021 76.9427 39.9791 77.0365 40.1562 77.1302C39.5 78.3333 38.8489 79.5365 38.1927 80.7396C38.026 80.6458 37.8593 80.5521 37.6927 80.4635Z" fill="white"/>
<path d="M40.2916 85.5156C40.6718 84.4791 41.0468 83.4427 41.4375 82.4062C41.6771 81.7656 41.9375 81.1354 42.1771 80.4896C42.1666 80.4791 42.1458 80.4635 42.1406 80.4583C42.625 82.5469 41.7916 84.1458 40.2396 85.4687L40.2916 85.5156Z" fill="white"/>
<path d="M33.8541 82.5365C34.2916 81.0104 34.5052 79.3437 36.2291 78.5885L36.2344 78.5781C35.7187 79.5573 35.2344 80.5469 34.6823 81.5052C34.4687 81.8802 34.1094 82.1719 33.8125 82.5L33.8541 82.5365Z" fill="white"/>
<path d="M40.2396 85.4688C40.1823 86.9896 39.7916 88.3698 38.5625 89.3854C38.5625 89.3906 38.6094 89.4271 38.6094 89.4271C38.5937 87.875 39.1875 86.5885 40.2969 85.5208C40.2916 85.5156 40.2396 85.4688 40.2396 85.4688Z" fill="white"/>
<path d="M54.4427 57.8437C53.9271 56.3906 54.0625 56.1458 55.9844 55.4739C55.5104 56.0052 55.2135 56.3333 54.9166 56.6666L54.9739 56.6458C54.9375 56.7031 54.8698 56.7656 54.875 56.8177C54.8906 56.9427 54.9427 57.0573 54.9739 57.1771L54.9219 57.1614C54.7656 57.375 54.6146 57.5833 54.4583 57.7969L54.4427 57.8437Z" fill="white"/>
<path d="M124.38 57.5312C123.823 58.3229 123.286 59.2135 121.911 58.9115C122.49 57.9583 123.49 57.8385 124.38 57.5312Z" fill="white"/>
<path d="M126.177 64.1979C126.292 63.9844 126.344 63.6563 126.521 63.5677C127.297 63.1615 128.104 62.8229 129.057 62.7188C128.089 63.1979 127.115 63.6719 126.146 64.151L126.177 64.1979Z" fill="white"/>
<path d="M65.4375 88.4792C65.6146 88.6094 65.7916 88.7396 65.9687 88.875V88.849C65.3333 89.8021 64.6979 90.75 64.0625 91.6979C64.0573 91.6927 64.0989 91.7552 64.0989 91.7552C63.6354 90.2604 64.9166 89.5104 65.5 88.4688C65.4948 88.474 65.4375 88.4792 65.4375 88.4792Z" fill="white"/>
<path d="M31.2864 102.865C31.1354 103.667 30.9791 104.469 30.8281 105.271C30.6927 105.245 30.5625 105.219 30.4323 105.187C30.6093 104.396 30.7864 103.599 30.9635 102.802C31.0729 102.823 31.1771 102.844 31.2864 102.865Z" fill="white"/>
<path d="M110.073 43.7917C110.542 43.7552 111.016 43.724 111.49 43.6875C111.536 43.8125 111.583 43.9323 111.63 44.0573C110.979 44.349 110.333 44.6458 109.552 45C109.62 44.5937 109.656 44.3906 109.687 44.1875L109.62 44.2448C109.792 44.0781 109.964 43.9063 110.135 43.7344L110.073 43.7917Z" fill="white"/>
<path d="M19.901 82.7969C20.2604 82.099 20.6198 81.401 20.9739 80.7031C21.1041 80.776 21.2343 80.8542 21.3698 80.9323C21.0312 81.625 20.8229 82.401 19.9062 82.7448L19.901 82.7969Z" fill="white"/>
<path d="M31.2083 110.385C31.0677 111.177 30.9218 111.969 30.7812 112.76C30.6666 112.74 30.5468 112.719 30.4323 112.698C30.5833 111.906 30.7396 111.115 30.8958 110.328C31 110.349 31.1041 110.365 31.2083 110.385Z" fill="white"/>
<path d="M32.3073 84.8906C32.8229 84.1042 33.3385 83.3229 33.8541 82.5365L33.8125 82.5C33.6875 83.526 33.6666 84.6198 32.3125 84.8594L32.3073 84.8906Z" fill="white"/>
<path d="M26.9323 80.8177C26.8125 81.6094 26.6927 82.401 26.5729 83.1927C26.3958 83.1458 26.2135 83.0937 26.0364 83.0469C26.3541 82.3177 26.6718 81.5937 26.9896 80.8698L26.9323 80.8177Z" fill="white"/>
<path d="M32.4791 105.292C32.3021 105.828 32.1302 106.365 31.9531 106.896C31.8854 106.875 31.8125 106.849 31.7396 106.828C31.9218 106.271 32.1041 105.714 32.2864 105.156C32.3489 105.198 32.4166 105.245 32.4791 105.292Z" fill="white"/>
<path d="M21.4271 86.1667C21.6146 85.8646 21.8021 85.5573 21.9896 85.25C22.1354 85.3594 22.4218 85.5417 22.4114 85.5677C22.2448 85.8802 22.0364 86.1667 21.8385 86.4635C21.6979 86.3646 21.5625 86.2656 21.4271 86.1667Z" fill="white"/>
<path d="M20.6302 109.302C20.7708 108.781 20.9114 108.26 21.0521 107.745C21.1146 107.755 21.1718 107.766 21.2343 107.776C21.1771 108.312 21.125 108.849 21.0729 109.38C20.9218 109.354 20.776 109.328 20.6302 109.302Z" fill="white"/>
<path d="M74.0677 74.9219C74.4062 74.6562 74.7396 74.3958 75.0729 74.1302C75.1979 74.2656 75.3229 74.3958 75.4479 74.5312C75.0625 74.7448 74.6771 74.9531 74.2916 75.1666C74.2187 75.0833 74.1458 75.0052 74.0677 74.9219Z" fill="white"/>
<path d="M62.5208 39.2344C62.6562 38.6979 62.7968 38.1614 62.9323 37.6198C63.0781 37.6771 63.2187 37.7292 63.3646 37.7812C63.0729 38.2656 62.776 38.7552 62.4791 39.2396L62.5208 39.2344Z" fill="white"/>
<path d="M80.375 68.6667C79.4219 68.5364 79.5989 68.2187 80.3281 67.6823C80.3646 68.1146 80.3854 68.4114 80.4114 68.7083L80.375 68.6667Z" fill="white"/>
<path d="M36.2291 78.5885C36.2291 77.9896 36.2291 77.3906 36.2291 76.7917C36.3698 76.8021 36.5052 76.8073 36.6458 76.8177C36.5052 77.401 36.3698 77.9844 36.2343 78.5729C36.2343 78.5781 36.2291 78.5885 36.2291 78.5885Z" fill="white"/>
<path d="M67.2604 83.6042C67.1979 84.1771 67.1354 84.75 67.0729 85.3229C66.8958 85.2812 66.7239 85.2396 66.5521 85.1927C66.8021 84.6875 67.0573 84.1771 67.3021 83.6614C67.2969 83.651 67.2604 83.6042 67.2604 83.6042Z" fill="white"/>
<path d="M62.7343 92.0156C62.9687 90.8125 63.5416 91.3177 64.0989 91.75C64.0989 91.7552 64.0573 91.6927 64.0625 91.6979C63.6093 91.7917 63.151 91.8802 62.6927 91.9688L62.7343 92.0156Z" fill="white"/>
<path d="M119.635 35.8489C120.104 35.7187 120.573 35.5885 121.036 35.4583C121.052 35.5625 121.068 35.6719 121.078 35.776C120.599 35.8021 120.12 35.8281 119.641 35.8489H119.635Z" fill="white"/>
<path d="M127.203 56.6302C127.396 56.2656 127.589 55.8958 127.781 55.5312C127.828 55.5573 127.875 55.5885 127.922 55.6146C127.682 55.9531 127.443 56.2865 127.203 56.6146C127.203 56.6042 127.203 56.6302 127.203 56.6302Z" fill="white"/>
<path d="M86.9739 60.4114C86.5989 60.4687 86.2291 60.5208 85.8541 60.5781C85.875 60.4479 85.8958 60.3229 85.9166 60.1927C86.25 60.2864 86.5833 60.3802 86.9218 60.4791L86.9739 60.4114Z" fill="white"/>
<path d="M86.9218 60.4792C87.1562 60.6563 87.3958 60.8385 87.6354 61.0208C87.4791 61.1094 87.3229 61.1927 87.1666 61.2813C87.0989 60.9948 87.0312 60.7083 86.9687 60.4167C86.9739 60.4115 86.9218 60.4792 86.9218 60.4792Z" fill="white"/>
<path d="M47.6719 67.5C47.7969 67.125 47.9271 66.75 48.0573 66.375C48.5312 67.1042 48.3385 67.4531 47.6094 67.4427L47.6719 67.5Z" fill="white"/>
<path d="M82.9896 68.7292C82.6094 68.6614 82.2344 68.5885 81.8541 68.5156C81.8437 68.4114 81.8281 68.3073 81.8177 68.2031C82.2083 68.1094 82.6041 68.0156 82.9948 67.9219L82.9271 67.8698C82.9271 68.1771 82.9271 68.4844 82.9271 68.7864L82.9896 68.7292Z" fill="white"/>
<path d="M86.0156 74.9063C86.1666 74.6563 86.3125 74.4011 86.4739 74.1615C86.4791 74.1511 86.651 74.25 86.7448 74.2969C86.5989 74.5573 86.4531 74.8125 86.3021 75.0729C86.2083 75.0156 86.1146 74.9636 86.0156 74.9063Z" fill="white"/>
<path d="M32.6614 92.4271C32.8281 92.1094 32.9948 91.7969 33.1614 91.4792C33.2396 91.5156 33.3229 91.5521 33.4062 91.5885C33.2604 91.9323 33.1198 92.276 32.9791 92.6198C32.8698 92.5573 32.7656 92.4896 32.6614 92.4271Z" fill="white"/>
<path d="M105.995 16.4792C105.802 16.6042 105.609 16.724 105.417 16.849C105.385 16.7917 105.312 16.6927 105.323 16.6823C105.484 16.5313 105.651 16.3906 105.823 16.25C105.88 16.3281 105.937 16.401 105.995 16.4792Z" fill="white"/>
<path d="M57.2656 52.9792C57.2031 53.2031 57.1406 53.4323 57.0781 53.6614L57.1302 53.6406C56.9635 53.8073 56.7968 53.9687 56.6354 54.1354L56.651 54.0833C56.5937 53.7292 56.5364 53.375 56.4739 53.0208C56.4739 53.026 56.4479 53.0104 56.4479 53.0104C56.7343 53.0208 57.026 53.026 57.3073 53.026C57.3021 53.0208 57.2656 52.9792 57.2656 52.9792Z" fill="white"/>
<path d="M128 60.4323C127.818 60.7344 127.63 61.0312 127.443 61.3333C127.339 61.2292 127.234 61.1198 127.13 61.0156C127.443 60.8333 127.75 60.6562 128.057 60.4739L128 60.4323Z" fill="white"/>
<path d="M26.6302 69.7708C26.6979 69.375 26.7656 68.9792 26.8333 68.5781C26.9635 68.6198 27.0937 68.6615 27.2239 68.7031C27.0104 69.0365 26.7916 69.375 26.5833 69.7135C26.5833 69.7187 26.6302 69.7708 26.6302 69.7708Z" fill="white"/>
<path d="M42.7604 69.5729C42.7968 69.8854 42.8333 70.1979 42.8646 70.5104C42.7448 70.5 42.625 70.4948 42.5052 70.4844C42.6093 70.1927 42.7083 69.901 42.8125 69.6042L42.7604 69.5729Z" fill="white"/>
<path d="M42.026 71.8854C41.9583 72.0989 41.9062 72.3229 41.8021 72.5156C41.7812 72.5573 41.5677 72.5 41.4427 72.4896C41.5468 72.2552 41.651 72.0156 41.75 71.776C41.8437 71.8125 41.9375 71.8489 42.026 71.8854Z" fill="white"/>
<path d="M28.8073 80.2656C28.8593 80 28.8958 79.8333 28.9271 79.6667C29.0052 79.75 29.1614 79.8594 29.1458 79.9219C29.1198 80.0208 28.9843 80.0989 28.8073 80.2656Z" fill="white"/>
<path d="M21.7812 89.3437C21.9531 89.0781 22.1198 88.8177 22.2864 88.5521C22.3854 88.6198 22.4896 88.6823 22.5885 88.75C22.4114 89.0052 22.2291 89.2656 22.0521 89.5208C21.9635 89.4635 21.875 89.401 21.7812 89.3437Z" fill="white"/>
<path d="M61.2552 93.5937C61.5156 93.151 61.776 92.7083 62.0364 92.2656L62 92.2396C62.2031 92.9114 62.0468 93.3906 61.2968 93.5416L61.2552 93.5937Z" fill="white"/>
<path d="M58.4323 115.672C58.2604 115.656 58.0885 115.641 57.9166 115.625C58.0781 115.38 58.2448 115.13 58.4114 114.885L58.375 114.818C58.375 115.125 58.375 115.432 58.375 115.745L58.4323 115.672Z" fill="white"/>
<path d="M66.8177 31.3854C66.8177 31.7083 66.8177 32.0312 66.8177 32.3542C66.776 32.3542 66.7396 32.3542 66.6979 32.3542C66.7343 32.0364 66.7656 31.7135 66.8021 31.3906L66.8177 31.3854Z" fill="white"/>
<path d="M82.9896 52.8802C82.9791 52.5625 82.9739 52.25 82.9635 51.9323C82.9635 51.9323 82.9114 51.9896 82.9062 51.9896C84.4323 52.25 82.8385 52.625 82.9427 52.9323L82.9896 52.8802Z" fill="white"/>
<path d="M128.057 60.474C128.318 60.3177 128.583 60.1563 128.844 60C128.88 60.1146 128.922 60.2292 128.958 60.3385C128.641 60.375 128.328 60.4063 128.01 60.4375C128 60.4323 128.057 60.474 128.057 60.474Z" fill="white"/>
<path d="M43.5781 69.2708C43.5156 69.0573 43.4531 68.8437 43.3958 68.6302C43.4531 68.625 43.5156 68.6198 43.5729 68.6094C43.5625 68.8333 43.5521 69.0573 43.526 69.2708C43.5156 69.2656 43.5781 69.2708 43.5781 69.2708Z" fill="white"/>
<path d="M112.594 68.3646C112.531 68.2864 112.474 68.2083 112.417 68.1302C112.469 68.0989 112.526 68.0521 112.583 68.0469C112.641 68.0417 112.698 68.0781 112.76 68.0937C112.703 68.1823 112.651 68.276 112.594 68.3646Z" fill="white"/>
<path d="M88.3177 72.6406C88.1198 72.7604 87.9271 72.8802 88.1719 72.7292C87.875 72.7708 88.0729 72.7448 88.276 72.7188L88.3177 72.6406Z" fill="white"/>
<path d="M85.2812 77.1042C84.9271 77.3281 84.5677 77.5521 84.2135 77.776L84.2708 77.8281C84.1146 76.8437 84.6198 76.8542 85.3073 77.1458L85.2812 77.1042Z" fill="white"/>
<path d="M28.4896 78.2083C28.5573 78.3177 28.6823 78.4375 28.6771 78.5416C28.6718 78.6562 28.5364 78.7604 28.4583 78.8646C28.3906 78.7552 28.2656 78.6354 28.2708 78.526C28.276 78.4166 28.4114 78.3125 28.4896 78.2083Z" fill="white"/>
<path d="M64.0521 84.3906C63.9479 84.4114 63.8437 84.4323 63.7448 84.4531C63.7396 84.3906 63.7187 84.276 63.7396 84.2656C63.8385 84.2292 63.9479 84.2187 64.0521 84.1979C64.0521 84.2604 64.0521 84.3281 64.0521 84.3906Z" fill="white"/>
<path d="M18.0156 89.8021H17.8541L17.9114 89.6719L18.0156 89.8021Z" fill="white"/>
<path d="M19.8021 90.3802C19.8802 90.4635 19.9531 90.5469 20.0312 90.6354C19.9114 90.7344 19.7916 90.8385 19.6771 90.9427C19.6198 90.8229 19.5156 90.7031 19.5312 90.5937C19.5416 90.5104 19.7031 90.4479 19.8021 90.3802Z" fill="white"/>
<path d="M17.4739 91.6771C17.5312 91.651 17.5885 91.5938 17.6406 91.599C17.6823 91.6042 17.7083 91.6875 17.7448 91.7344C17.651 91.7708 17.5625 91.8073 17.4739 91.8438C17.4739 91.7865 17.4739 91.7344 17.4739 91.6771Z" fill="white"/>
<path d="M18.151 94.0312C18.1771 94.2344 18.2083 94.4375 18.1875 94.2708C18.1718 94.4427 18.1875 94.25 18.2031 94.0625L18.151 94.0312Z" fill="white"/>
<path d="M20.7031 95.7708C20.7969 95.7031 20.8906 95.5885 20.9687 95.599C21.0469 95.6094 21.1094 95.7396 21.1666 95.8281C21.1719 95.8385 21.0625 95.9531 21.0312 95.9427C20.9219 95.9063 20.8229 95.8333 20.7031 95.7708Z" fill="white"/>
<path d="M30.2916 101.161C30.2604 101.219 30.2291 101.281 30.1979 101.339C30.1614 101.302 30.0781 101.245 30.0885 101.229C30.125 101.141 30.1875 101.057 30.2396 100.974C30.2552 101.036 30.276 101.099 30.2916 101.161Z" fill="white"/>
<path d="M20.7864 107.094C20.5208 106.99 20.2552 106.885 19.9896 106.781C20.026 106.719 20.0625 106.656 20.0989 106.599C20.3281 106.766 20.5625 106.927 20.7916 107.094H20.7864Z" fill="white"/>
<path d="M31.5729 108.531C31.5416 108.568 31.5 108.604 31.4583 108.641C31.4323 108.583 31.3698 108.495 31.3906 108.464C31.4323 108.401 31.5208 108.37 31.5885 108.323C31.5833 108.391 31.5781 108.458 31.5729 108.531Z" fill="white"/>
<path d="M62.0677 109.943C62.1302 110.031 62.2031 110.109 62.2396 110.203C62.2552 110.24 62.1823 110.359 62.1666 110.354C62.0677 110.339 61.9739 110.297 61.875 110.26C61.9375 110.156 61.9948 110.057 62.0677 109.943Z" fill="white"/>
<path d="M63.6406 110.62C63.4427 110.771 63.2448 110.927 63.0468 111.083C63.0208 110.969 62.9896 110.859 62.9583 110.75C63.2083 110.719 63.4531 110.687 63.6979 110.656L63.6406 110.62Z" fill="white"/>
<path d="M28.1927 114.005L28.0416 114.042L28.1093 113.885L28.1927 114.005Z" fill="white"/>
<path d="M48.0469 123.859C47.9166 124.302 47.7916 124.75 47.6666 125.198L47.7135 125.255C47.6927 124.786 47.6719 124.323 47.651 123.859L47.5937 123.922C47.7656 123.917 47.9323 123.917 48.1041 123.917L48.0469 123.859Z" fill="white"/>
<path d="M71.9791 33.2291C72.0416 33.1354 72.1041 33.0469 72.1614 32.9583C72.125 33.0521 72.0937 33.151 72.0521 33.25C72.0468 33.25 71.9791 33.2291 71.9791 33.2291Z" fill="white"/>
<path d="M66.2239 42.5208C66.3593 42.2396 66.4948 41.9583 66.6302 41.6719L66.5677 41.6042C66.4271 41.8958 66.2916 42.1875 66.151 42.4792L66.2239 42.5208Z" fill="white"/>
<path d="M94.5677 42.026C94.5781 42.1771 94.5885 42.3281 94.6041 42.4792L94.6146 42.5104C94.6146 42.3437 94.6146 42.1771 94.6146 42.0104L94.5677 42.026Z" fill="white"/>
<path d="M44.1823 45.8958C44.0469 46.1979 43.9114 46.5 43.776 46.7969L43.7864 46.8177C43.7864 46.5104 43.7812 46.1979 43.776 45.8906L43.7187 45.9531C43.8906 45.9531 44.0625 45.9583 44.2291 45.9635L44.1823 45.8958Z" fill="white"/>
<path d="M56.9635 52.0885C57.0573 52.3802 57.1562 52.6719 57.2604 52.9687C57.2656 52.9791 57.3021 53.0208 57.3073 53.026C57.2187 52.7031 57.1198 52.3698 57.0208 52.0364L56.9635 52.0885Z" fill="white"/>
<path d="M87.3073 52.8073C87.1927 52.7708 87.0781 52.7292 86.9635 52.6927C87.0781 52.5937 87.1927 52.4948 87.3073 52.401L87.2396 52.3542C87.2448 52.5208 87.2448 52.6875 87.25 52.8594L87.3073 52.8073Z" fill="white"/>
<path d="M54.3594 54.9375C54.4739 54.6354 54.5885 54.3333 54.6979 54.0312L54.6927 54.0729C54.5989 54.3385 54.5 54.599 54.4062 54.8646L54.3594 54.9375Z" fill="white"/>
<path d="M126.073 56.7188C126.396 56.1406 126.792 56.3281 127.203 56.625C127.203 56.6302 127.203 56.6042 127.203 56.6146C126.812 56.6354 126.417 56.6511 126.021 56.6667L126.073 56.7188Z" fill="white"/>
<path d="M121.062 60.9844C120.964 61.0104 120.87 61.0365 120.771 61.0625C120.792 61.1198 120.812 61.1719 120.833 61.224C120.901 61.1771 120.969 61.1302 121.036 61.0781L121.062 60.9844Z" fill="white"/>
<path d="M84.7187 62.6719C84.7031 62.651 84.6875 62.6354 84.6718 62.6146L84.7187 62.6719Z" fill="white"/>
<path d="M123.687 64.8021C123.682 64.9114 123.672 65.0156 123.672 65.0312C123.682 65.0104 123.708 64.8906 123.74 64.776L123.687 64.8021Z" fill="white"/>
<path d="M114.891 66.5312C114.771 66.4948 114.651 66.4583 114.536 66.4219C114.594 66.3489 114.656 66.276 114.719 66.2083C114.755 66.3281 114.792 66.4531 114.828 66.5729L114.891 66.5312Z" fill="white"/>
<path d="M119.599 67.2292C119.651 67.1979 119.703 67.1719 119.755 67.1406C119.781 67.2292 119.802 67.3229 119.828 67.4115C119.766 67.4063 119.687 67.4167 119.641 67.3854C119.609 67.3594 119.609 67.2813 119.599 67.2292Z" fill="white"/>
<path d="M118.474 67.9323C118.516 67.9427 118.562 67.9583 118.604 67.9687C118.589 68.0156 118.583 68.0781 118.552 68.1042C118.531 68.125 118.469 68.0885 118.422 68.0781C118.443 68.026 118.458 67.9792 118.474 67.9323Z" fill="white"/>
<path d="M40.0052 75.7187C40.0104 75.5729 40.0156 75.4323 40.0104 75.625C40.0729 75.4635 40.0104 75.6146 39.9531 75.7708L40.0052 75.7187Z" fill="white"/>
<path d="M72.9531 76.7344C72.8958 76.6406 72.8333 76.5469 72.776 76.4583C72.8073 76.5364 72.8437 76.6146 72.8802 76.6875L72.9531 76.7344Z" fill="white"/>
<path d="M65.1198 83.2708C65.0677 83.3021 65.0156 83.3385 64.9635 83.3698C64.9219 83.2917 64.8854 83.2135 64.8489 83.1354C64.9114 83.125 64.9844 83.0885 65.0364 83.1094C65.0781 83.1302 65.0937 83.2135 65.1198 83.2708Z" fill="white"/>
<path d="M64.8177 84.6094C64.9583 84.5417 65.0989 84.4739 65.2448 84.401C65.25 84.4635 65.2552 84.526 65.2604 84.5885C65.0989 84.5781 64.9375 84.5677 64.776 84.5573L64.8177 84.6094Z" fill="white"/>
<path d="M23.8281 86.0521C23.7916 86.0989 23.75 86.1406 23.7135 86.1875C23.6875 86.1354 23.6406 86.0729 23.6458 86.0208C23.651 85.9739 23.7135 85.9323 23.75 85.8854C23.776 85.9427 23.8021 85.9948 23.8281 86.0521Z" fill="white"/>
<path d="M65.9687 88.875C65.9166 88.7083 65.8698 88.5417 65.9583 88.8385C65.8958 88.5156 65.9271 88.6719 65.9635 88.8385C65.9687 88.849 65.9687 88.875 65.9687 88.875Z" fill="white"/>
<path d="M20.5052 88.9792C20.5416 88.7969 20.5781 88.6146 20.6146 88.4323C20.5625 88.5989 20.5052 88.7604 20.4479 88.9271L20.5052 88.9792Z" fill="white"/>
<path d="M20.4479 88.9271C20.3958 89.0625 20.3385 89.1979 20.2864 89.3333C20.2656 89.2864 20.2239 89.2083 20.2343 89.1927C20.3177 89.1146 20.4166 89.0521 20.5052 88.9791L20.4479 88.9271Z" fill="white"/>
<path d="M38.0521 90.1667C38.2396 89.9219 38.4218 89.6771 38.6093 89.4323C38.6093 89.4271 38.5625 89.3906 38.5625 89.3854C38.375 89.625 38.1875 89.8646 38.0052 90.1094C38.0104 90.1146 38.0521 90.1667 38.0521 90.1667Z" fill="white"/>
<path d="M22.4739 90.7083C22.5677 90.6771 22.6562 90.6406 22.75 90.6094C22.6718 90.6146 22.5937 90.625 22.5208 90.6354L22.4739 90.7083Z" fill="white"/>
<path d="M37.4844 90.8542C37.6771 90.6302 37.8698 90.401 38.0573 90.1719C38.0521 90.1667 38.0104 90.1146 38.0052 90.1094C37.8437 90.349 37.6823 90.5937 37.5208 90.8385L37.4844 90.8542Z" fill="white"/>
<path d="M37.5208 90.8385C37.5208 90.9375 37.5156 91.0417 37.5156 91.1406C37.5104 91.0469 37.5 90.9479 37.4896 90.8542C37.4844 90.8542 37.5208 90.8385 37.5208 90.8385Z" fill="white"/>
<path d="M19.0521 93.099C19.0052 93.1094 18.9427 93.1354 18.9166 93.1146C18.8802 93.0885 18.8802 93.0208 18.8646 92.974C18.9427 92.9635 19.0156 92.9479 19.0937 92.9375C19.0781 92.9948 19.0677 93.0469 19.0521 93.099Z" fill="white"/>
<path d="M37.026 92.901L37.1354 92.8906L37.0885 93.0417L37.026 92.901Z" fill="white"/>
<path d="M75.1927 94.1198C75.0989 93.75 75 93.375 74.9062 93C74.9114 93 74.9427 93.0052 74.9427 93C75.0104 93.3958 75.0729 93.7865 75.1354 94.1771L75.1927 94.1198Z" fill="white"/>
<path d="M36.3021 95.0937C36.2656 95.1094 36.2239 95.125 36.1823 95.1458C36.1719 95.0885 36.1458 95.0364 36.151 94.9844C36.151 94.9635 36.2239 94.9479 36.2656 94.9323C36.276 94.9896 36.2916 95.0417 36.3021 95.0937Z" fill="white"/>
<path d="M30.6875 99.7865C30.6458 99.8021 30.6041 99.8177 30.5625 99.8333C30.5468 99.776 30.5208 99.724 30.526 99.6667C30.526 99.651 30.6041 99.6354 30.651 99.625C30.6614 99.6771 30.6718 99.7344 30.6875 99.7865Z" fill="white"/>
<path d="M58.625 104.708C58.6666 104.839 58.7083 104.964 58.7552 105.094C58.7239 105.052 58.6719 105.016 58.6614 104.969C58.651 104.901 58.6666 104.833 58.6562 104.755C58.651 104.745 58.625 104.708 58.625 104.708Z" fill="white"/>
<path d="M65.7239 105.849C65.875 105.844 66.0208 105.839 66.1771 105.833L66.1979 105.776C66.026 105.776 65.8593 105.781 65.6875 105.781L65.7239 105.849Z" fill="white"/>
<path d="M70.0729 107.052C69.9739 106.99 69.875 106.922 69.7812 106.859C69.8802 106.797 69.9791 106.687 70.0781 106.693C70.1771 106.693 70.2708 106.807 70.3646 106.87C70.2708 106.932 70.1718 106.995 70.0729 107.052Z" fill="white"/>
<path d="M69.3854 109.906L69.3229 109.734L69.4687 109.745L69.3854 109.906Z" fill="white"/>
<path d="M27.9791 111.49L28.0677 111.323L28.1354 111.5L27.9791 111.49Z" fill="white"/>
<path d="M51.2864 117.755C51.2708 117.599 51.25 117.438 51.2604 117.542C51.2448 117.438 51.2708 117.589 51.2968 117.745C51.2968 117.75 51.2864 117.755 51.2864 117.755Z" fill="white"/>
<path d="M98.2083 22.401L98.3541 22.3489C98.3541 22.3489 98.2396 22.4323 98.2396 22.4375C98.2396 22.4427 98.2083 22.401 98.2083 22.401Z" fill="white"/>
<path d="M71.3437 28.651C71.2031 28.8125 71.0625 28.9687 70.9166 29.1302L70.9271 29.1614C70.9218 28.9948 70.9166 28.8281 70.9114 28.6667L70.8541 28.7031C71.0312 28.7083 71.2031 28.7083 71.375 28.7135L71.3437 28.651Z" fill="white"/>
<path d="M70.9166 29.1302C70.7604 29.1198 70.5989 29.1094 70.4427 29.0989L70.4271 29.1458C70.5937 29.151 70.7604 29.1562 70.9271 29.1614L70.9166 29.1302Z" fill="white"/>
<path d="M68.3958 32.6823C68.375 32.6979 68.3489 32.7135 68.3229 32.7292L68.3958 32.6823Z" fill="white"/>
<path d="M68.3229 32.7292C68.3281 32.6927 68.3385 32.6562 68.3437 32.6198C68.3646 32.6406 68.3802 32.6562 68.401 32.6771C68.3958 32.6823 68.3229 32.7292 68.3229 32.7292Z" fill="white"/>
<path d="M62.4791 39.2396L62.3646 39.1354C62.3646 39.1354 62.5052 39.2292 62.5104 39.2292C62.5208 39.2344 62.4791 39.2396 62.4791 39.2396Z" fill="white"/>
<path d="M65.5468 40.1302C65.5729 40.2291 65.6041 40.3281 65.6354 40.4271C65.6146 40.4114 65.5833 40.3906 65.5833 40.3698C65.5833 40.3073 65.5937 40.25 65.5937 40.1823C65.5833 40.1771 65.5468 40.1302 65.5468 40.1302Z" fill="white"/>
<path d="M66.6302 41.6719C66.6198 41.5 66.6093 41.3281 66.5989 41.1562L66.5416 41.2083C66.7135 41.2135 66.8906 41.2135 67.0677 41.2135L67 41.1667C66.8593 41.3125 66.7135 41.4583 66.5677 41.6042L66.6302 41.6719Z" fill="white"/>
<path d="M65.276 42.0781C65.3385 42.0208 65.3958 41.9635 65.4583 41.9062C65.4375 41.9427 65.4219 41.9948 65.3958 42.0052C65.3437 42.0208 65.2812 42.0156 65.2239 42.0208C65.2239 42.0156 65.276 42.0781 65.276 42.0781Z" fill="white"/>
<path d="M65.7708 42.9167C65.9218 42.7864 66.0729 42.651 66.2239 42.5208L66.151 42.4792C66.0052 42.6198 65.8593 42.7604 65.7135 42.8958L65.7708 42.9167Z" fill="white"/>
<path d="M94.6041 42.4792C94.4427 42.4896 94.2812 42.5052 94.125 42.5208C94.125 42.526 94.1093 42.5156 94.1093 42.5156C94.2812 42.5156 94.4479 42.5156 94.6146 42.5104L94.6041 42.4792Z" fill="white"/>
<path d="M65.4062 43.4375C65.526 43.2656 65.651 43.0885 65.7708 42.9166L65.7135 42.8958C65.5781 43.0573 65.4427 43.2187 65.3125 43.375L65.4062 43.4375Z" fill="white"/>
<path d="M64.8073 43.375C65.0052 43.3958 65.2031 43.4166 65.4062 43.4375L65.3125 43.375C65.1614 43.3594 65.0156 43.3385 64.8698 43.3177L64.8073 43.375Z" fill="white"/>
<path d="M105.734 46.7552C105.776 46.7083 105.807 46.6562 105.859 46.625C105.88 46.6094 105.937 46.6458 105.974 46.6615C105.88 46.6771 105.786 46.6875 105.687 46.7031C105.682 46.6979 105.734 46.7552 105.734 46.7552Z" fill="white"/>
<path d="M43.776 46.7969C43.6198 46.7917 43.4635 46.7865 43.3073 46.7812L43.2969 46.8125C43.4583 46.8177 43.625 46.8177 43.7864 46.8177L43.776 46.7969Z" fill="white"/>
<path d="M57.0208 52.0365C56.9531 51.9063 56.8854 51.7708 56.8229 51.6354C56.9218 51.6094 57.026 51.5781 57.1302 51.5521L57.0781 51.5C57.0416 51.6927 57.0052 51.8854 56.9635 52.0833C56.9635 52.0885 57.0208 52.0365 57.0208 52.0365Z" fill="white"/>
<path d="M56.1302 53.3854C56.2344 53.2604 56.3385 53.1406 56.4427 53.0156C56.4479 53.0104 56.4739 53.026 56.4739 53.0208C56.3594 53.1458 56.2448 53.2708 56.125 53.3958C56.1198 53.3958 56.1302 53.3854 56.1302 53.3854Z" fill="white"/>
<path d="M82.9427 52.9323L82.901 52.8802C82.901 52.8802 83 52.8698 82.9948 52.875C82.9896 52.8802 82.9427 52.9323 82.9427 52.9323Z" fill="white"/>
<path d="M55.3541 53.5312C55.6094 53.4844 55.8698 53.4323 56.1302 53.3854C56.1302 53.3854 56.1198 53.3958 56.125 53.3958C55.8646 53.4167 55.6041 53.4375 55.3437 53.4635C55.3437 53.4687 55.3541 53.5312 55.3541 53.5312Z" fill="white"/>
<path d="M54.6979 54.0312C54.9218 53.8698 55.1406 53.7031 55.3541 53.5364C55.3541 53.5312 55.3437 53.4687 55.3437 53.4635C55.1302 53.6614 54.9114 53.8646 54.6927 54.0729L54.6979 54.0312Z" fill="white"/>
<path d="M57.0781 53.6615C57.0937 53.8073 57.1094 53.9479 57.125 54.0938L57.1406 54.1458C57.1406 53.9792 57.1354 53.8073 57.1302 53.6406L57.0781 53.6615Z" fill="white"/>
<path d="M57.125 54.0937C56.9687 54.0885 56.8125 54.0833 56.651 54.0833L56.6354 54.1354C56.8021 54.1406 56.9739 54.1406 57.1406 54.1458L57.125 54.0937Z" fill="white"/>
<path d="M54.4062 54.8646C54.4062 54.9062 54.4062 54.9479 54.4062 54.9844C54.3906 54.9687 54.3802 54.9479 54.3646 54.9323C54.3593 54.9375 54.4062 54.8646 54.4062 54.8646Z" fill="white"/>
<path d="M54.9166 56.6666C54.9218 56.8333 54.9218 56.9948 54.9218 57.1614L54.9739 57.1771C54.9739 57 54.9739 56.8229 54.9739 56.6458L54.9166 56.6666Z" fill="white"/>
<path d="M126.021 56.6667C125.974 56.7656 125.922 56.8646 125.875 56.9635C125.943 56.8802 126.005 56.8021 126.073 56.7187L126.021 56.6667Z" fill="white"/>
<path d="M54.4583 57.7969L54.4896 57.9583C54.4896 57.9583 54.4479 57.8542 54.4479 57.849C54.4427 57.8437 54.4583 57.7969 54.4583 57.7969Z" fill="white"/>
<path d="M82.0312 58.7604C81.9375 58.9427 81.8385 59.1302 81.7396 59.3125L81.7969 59.3594C81.8906 59.1771 81.9896 58.9948 82.0833 58.8073C82.0781 58.8073 82.0312 58.7604 82.0312 58.7604Z" fill="white"/>
<path d="M81.7396 59.3125C81.5677 59.3958 81.3906 59.474 81.2135 59.5573L81.1875 59.6094C81.3906 59.526 81.5885 59.4427 81.7968 59.3594L81.7396 59.3125Z" fill="white"/>
<path d="M120.891 59.7083L120.833 59.6562L120.891 59.7083Z" fill="white"/>
<path d="M81.2135 59.5573C81.2083 59.5781 81.1979 59.5937 81.1927 59.6094C81.1875 59.6094 81.2135 59.5573 81.2135 59.5573Z" fill="white"/>
<path d="M120.833 59.6562C120.792 59.7292 120.755 59.8021 120.714 59.875C120.719 59.8385 120.714 59.7813 120.734 59.7656C120.781 59.7396 120.839 59.7292 120.891 59.7083L120.833 59.6562Z" fill="white"/>
<path d="M121.036 61.0781C121.016 61.0364 120.99 60.9896 120.969 60.9479C121 60.9635 121.031 60.9792 121.062 60.9896C121.062 60.9844 121.036 61.0781 121.036 61.0781Z" fill="white"/>
<path d="M51.2552 62.5521L51.1562 62.6458C51.1562 62.6458 51.2083 62.5104 51.2135 62.5104L51.2552 62.5521Z" fill="white"/>
<path d="M84.2969 63.151C84.4375 62.9948 84.5781 62.8333 84.7187 62.6771C84.7187 62.6719 84.6719 62.6146 84.6719 62.6146C84.526 62.776 84.3854 62.9375 84.2396 63.0989L84.2969 63.151Z" fill="white"/>
<path d="M84.2396 63.0989C84.2239 63.1562 84.2031 63.2135 84.1875 63.2708C84.2239 63.2291 84.2604 63.1927 84.2968 63.151L84.2396 63.0989Z" fill="white"/>
<path d="M91 64.3333L91.1458 64.3229L91.0468 64.276L91 64.3333Z" fill="white"/>
<path d="M126.146 64.151C126.094 64.1406 126.036 64.1302 125.979 64.125C126.042 64.1406 126.109 64.1615 126.177 64.1927C126.177 64.1979 126.146 64.151 126.146 64.151Z" fill="white"/>
<path d="M91.0468 64.276L91.0833 64.4271C91.0833 64.4271 91.0104 64.3333 91.0052 64.3333C91 64.3333 91.0468 64.276 91.0468 64.276Z" fill="white"/>
<path d="M123.74 64.776L123.844 64.8437C123.844 64.8437 123.693 64.8073 123.687 64.8021L123.74 64.776Z" fill="white"/>
<path d="M114.828 66.5729L114.885 66.6771C114.885 66.6771 114.885 66.5312 114.891 66.5312L114.828 66.5729Z" fill="white"/>
<path d="M47.6041 67.8646C47.6041 67.8646 47.6562 67.8229 47.6614 67.8177L47.6041 67.8646Z" fill="white"/>
<path d="M80.4114 68.7083L80.4479 68.7812L80.3698 68.6667C80.375 68.6667 80.4114 68.7083 80.4114 68.7083Z" fill="white"/>
<path d="M42.8125 69.6041C43.0625 69.4948 43.3125 69.3802 43.5677 69.2708C43.5781 69.2708 43.5156 69.2656 43.526 69.2708C43.2812 69.375 43.026 69.4791 42.7656 69.5729C42.7604 69.5729 42.8125 69.6041 42.8125 69.6041Z" fill="white"/>
<path d="M89.3125 70.9323C89.3541 70.9531 89.3906 70.9687 89.4271 70.9896C89.4114 70.9635 89.3906 70.9427 89.375 70.9167L89.3125 70.9323Z" fill="white"/>
<path d="M89.375 70.9167C89.3489 70.9323 89.3229 70.9531 89.2968 70.9687C89.3073 70.9531 89.3177 70.9427 89.3229 70.9323C89.3125 70.9323 89.375 70.9167 89.375 70.9167Z" fill="white"/>
<path d="M88.276 72.7187C88.2656 72.6771 88.2604 72.6354 88.2552 72.5885C88.2708 72.6094 88.2916 72.6302 88.3125 72.6458C88.3177 72.6406 88.276 72.7187 88.276 72.7187Z" fill="white"/>
<path d="M44.4948 72.875L44.3698 72.9219L44.3854 72.7969L44.4948 72.875Z" fill="white"/>
<path d="M39.9531 75.7708L39.8802 75.7239C39.8802 75.7239 40.0104 75.7083 40.0052 75.7135C40.0052 75.7187 39.9531 75.7708 39.9531 75.7708Z" fill="white"/>
<path d="M72.8802 76.6875C72.9271 76.6771 72.9739 76.6667 73.0208 76.6562C72.9948 76.6771 72.9739 76.7031 72.9531 76.7292C72.9531 76.7344 72.8802 76.6875 72.8802 76.6875Z" fill="white"/>
<path d="M85.3073 77.1458C85.2708 77.0989 85.2343 77.0573 85.2031 77.0104C85.2187 77.0364 85.2396 77.0625 85.2708 77.0937C85.2812 77.1042 85.3073 77.1458 85.3073 77.1458Z" fill="white"/>
<path d="M23.6146 78.0937L23.5573 78.1979L23.5833 78.0469C23.5833 78.0417 23.6146 78.0937 23.6146 78.0937Z" fill="white"/>
<path d="M21.75 79.401L21.7396 79.5573C21.7396 79.5573 21.7135 79.4531 21.7083 79.4531L21.75 79.401Z" fill="white"/>
<path d="M26.9896 80.8698C27.026 80.8021 27.0677 80.7344 27.1041 80.6667C27.0989 80.7031 27.1041 80.7604 27.0885 80.776C27.0416 80.8021 26.9843 80.8021 26.9323 80.8177L26.9896 80.8698Z" fill="white"/>
<path d="M37.9583 82.2448L37.9948 82.3542L37.8906 82.3385L37.9583 82.2448Z" fill="white"/>
<path d="M19.9062 82.7448L19.9791 82.9167C19.9791 82.9167 19.9166 82.8125 19.9114 82.8073C19.901 82.7969 19.9062 82.7448 19.9062 82.7448Z" fill="white"/>
<path d="M80.875 83.3125L80.8541 83.4479C80.8541 83.4479 80.9166 83.276 80.9218 83.2708C80.9271 83.2656 80.875 83.3125 80.875 83.3125Z" fill="white"/>
<path d="M64.776 84.5573C64.7239 84.8125 64.6666 85.0677 64.6146 85.3177L64.651 85.3542C64.651 85.3542 64.7708 85.3802 64.7604 85.375C64.75 85.3698 64.7708 85.375 64.7708 85.375C64.7864 85.1198 64.8073 84.8646 64.8177 84.6094L64.776 84.5573Z" fill="white"/>
<path d="M81.4427 85.026L81.3906 84.8958L81.5156 84.9114L81.4427 85.026Z" fill="white"/>
<path d="M32.3125 84.8594C32.3489 84.9115 32.3854 84.9635 32.4218 85.0156C32.3854 84.9792 32.3541 84.9427 32.3125 84.8958C32.3073 84.8906 32.3125 84.8594 32.3125 84.8594Z" fill="white"/>
<path d="M63.8021 85.3489C64.1198 85.3542 64.4375 85.3594 64.7656 85.3698C64.7708 85.375 64.75 85.3698 64.7604 85.375C64.4635 85.3542 64.151 85.3333 63.8437 85.3073L63.8021 85.3489Z" fill="white"/>
<path d="M64.6146 85.3177L64.7239 85.276C64.7239 85.276 64.6562 85.3437 64.6562 85.3489C64.651 85.3542 64.6146 85.3177 64.6146 85.3177Z" fill="white"/>
<path d="M63.8437 85.3073L63.901 85.4583C63.901 85.4583 63.8125 85.3489 63.8073 85.3489C63.8021 85.3489 63.8437 85.3073 63.8437 85.3073Z" fill="white"/>
<path d="M26.1927 86.2865L26.1406 86.3906L26.1562 86.2344C26.1614 86.2344 26.1927 86.2865 26.1927 86.2865Z" fill="white"/>
<path d="M79.7604 86.8906H79.9323C79.9323 86.8906 79.8229 86.9115 79.8177 86.9115C79.8125 86.9115 79.7604 86.8906 79.7604 86.8906Z" fill="white"/>
<path d="M64.776 88.4687C64.9948 88.4739 65.2083 88.4844 65.4323 88.4844C65.4375 88.4792 65.4948 88.4739 65.5 88.4687C65.2448 88.4531 64.9844 88.4323 64.7239 88.4167L64.776 88.4687Z" fill="white"/>
<path d="M64.7239 88.4167C64.7396 88.526 64.75 88.6302 64.7604 88.7344C64.7396 88.7031 64.6979 88.6667 64.7031 88.6458C64.7187 88.5885 64.7604 88.5364 64.7812 88.4739C64.776 88.4687 64.7239 88.4167 64.7239 88.4167Z" fill="white"/>
<path d="M16.401 90.0156C16.4479 90.0104 16.4948 90.0104 16.5468 90.0052C16.5156 90.026 16.4843 90.0416 16.4531 90.0625C16.4531 90.0677 16.401 90.0156 16.401 90.0156Z" fill="white"/>
<path d="M67.4479 90.3177C67.3906 90.2917 67.3281 90.2708 67.2864 90.2292C67.2656 90.2135 67.2916 90.1458 67.2969 90.1042C67.3281 90.1927 67.3594 90.2812 67.3906 90.3698L67.4479 90.3177Z" fill="white"/>
<path d="M33.7187 90.5208L33.5989 90.5625L33.6146 90.4479L33.7187 90.5208Z" fill="white"/>
<path d="M22.5208 90.6354C22.5208 90.6771 22.526 90.7135 22.5312 90.7552C22.5156 90.7396 22.5 90.7187 22.4791 90.7083C22.4739 90.7083 22.5208 90.6354 22.5208 90.6354Z" fill="white"/>
<path d="M21.2135 91.6146C21.2708 91.6302 21.3229 91.6458 21.3802 91.6614C21.3437 91.625 21.3021 91.5885 21.2656 91.5573L21.2135 91.6146Z" fill="white"/>
<path d="M21.2656 91.5573C21.2604 91.5937 21.2552 91.6354 21.25 91.6771C21.2396 91.651 21.2291 91.6302 21.2187 91.6094C21.2135 91.6146 21.2656 91.5573 21.2656 91.5573Z" fill="white"/>
<path d="M62.0364 92.2656C62.2708 92.1823 62.5 92.099 62.7344 92.0156L62.6927 91.9688C62.4687 92.0625 62.2448 92.1563 62.0104 92.2448C62 92.2396 62.0364 92.2656 62.0364 92.2656Z" fill="white"/>
<path d="M18.2031 94.0625C18.1927 94.0573 18.1771 94.0521 18.1562 94.0364C18.151 94.0312 18.2031 94.0625 18.2031 94.0625Z" fill="white"/>
<path d="M61.2968 93.5417L61.3489 93.6927C61.3489 93.6927 61.2604 93.5937 61.2552 93.5937L61.2968 93.5417Z" fill="white"/>
<path d="M75.1354 94.1771C75.1979 94.1979 75.2604 94.2187 75.3229 94.2448C75.2812 94.2031 75.2396 94.1614 75.1927 94.1198L75.1354 94.1771Z" fill="white"/>
<path d="M75.2968 95.4948L75.3385 95.3438L75.2448 95.4479L75.2968 95.4948Z" fill="white"/>
<path d="M75.2448 95.4479C75.0885 95.6198 74.9323 95.7864 74.7708 95.9635C74.776 95.9635 74.8177 96.0208 74.8177 96.0208C74.9791 95.8489 75.1354 95.6719 75.2969 95.4948L75.2448 95.4479Z" fill="white"/>
<path d="M46.2083 97.2187C46.2656 97.2396 46.3177 97.2604 46.3698 97.2812C46.3385 97.2448 46.3021 97.2135 46.2708 97.1823L46.2083 97.2187Z" fill="white"/>
<path d="M46.2708 97.1823C46.2552 97.1927 46.2396 97.2031 46.2135 97.2135C46.2083 97.2187 46.2708 97.1823 46.2708 97.1823Z" fill="white"/>
<path d="M59.6614 103.172C59.6562 103.234 59.651 103.292 59.6406 103.354C59.6666 103.313 59.6927 103.266 59.7135 103.219L59.6614 103.172Z" fill="white"/>
<path d="M37.0677 104.307L37 104.214L37.0989 104.281C37.1041 104.281 37.0677 104.307 37.0677 104.307Z" fill="white"/>
<path d="M66.9114 104.604L66.9635 104.521C66.9635 104.521 66.9635 104.667 66.9583 104.667C66.9583 104.661 66.9114 104.604 66.9114 104.604Z" fill="white"/>
<path d="M69.9062 104.38L69.9843 104.328H69.901L69.9062 104.38Z" fill="white"/>
<path d="M69.901 104.328L69.9739 104.49C69.9739 104.49 69.9271 104.391 69.9166 104.385C69.9062 104.38 69.901 104.328 69.901 104.328Z" fill="white"/>
<path d="M64.1093 108.328C64.1093 108.328 64.0573 108.391 64.0573 108.385C64.0625 108.38 64.1093 108.328 64.1093 108.328Z" fill="white"/>
<path d="M68.375 109.594L68.3698 109.687L68.3333 109.542L68.375 109.594Z" fill="white"/>
<path d="M63.6979 110.656C63.6666 110.62 63.6354 110.583 63.6041 110.547C63.6146 110.568 63.625 110.589 63.6354 110.615C63.6406 110.62 63.6979 110.656 63.6979 110.656Z" fill="white"/>
<path d="M58.4114 114.885C58.5312 114.885 58.6562 114.885 58.7812 114.885L58.8489 114.818C58.6875 114.818 58.5312 114.818 58.375 114.818L58.4114 114.885Z" fill="white"/>
<path d="M58.7812 114.885C58.9531 114.88 59.1302 114.87 59.3021 114.859L59.2448 114.802C59.2448 114.974 59.25 115.151 59.25 115.323L59.3021 115.276C59.151 115.125 59 114.974 58.8489 114.818L58.7812 114.885Z" fill="white"/>
<path d="M47.6666 125.198C47.6354 125.245 47.6094 125.307 47.5677 125.344C47.5521 125.359 47.4948 125.333 47.4531 125.328C47.5416 125.302 47.625 125.276 47.7135 125.25C47.7135 125.255 47.6666 125.198 47.6666 125.198Z" fill="white"/>
<path d="M56.2968 126.38L56.3177 126.484L56.2604 126.333C56.2604 126.328 56.2968 126.38 56.2968 126.38Z" fill="white"/>
<path d="M79.3333 6.05206C79.0885 6.0729 78.8437 6.09373 78.6562 6.10935C78.8281 6.10935 79.0573 6.10935 79.2812 6.10935L79.3333 6.05206Z" fill="white"/>
<path d="M68.2812 13.599C68.4479 13.599 68.6093 13.599 68.776 13.5938C68.6771 13.7656 68.5729 13.9375 68.4739 14.1042C68.4114 13.9375 68.3437 13.7656 68.2812 13.599Z" fill="white"/>
<path d="M50.2708 38.1927C49.9583 38.1875 49.6406 38.1875 49.3229 38.1823C49.6406 38.1875 49.9531 38.1875 50.2708 38.1927Z" fill="white"/>
<path d="M79.2812 6.10936C79.276 6.05728 79.2656 5.99999 79.2552 5.94791C79.276 5.98436 79.3021 6.02082 79.3281 6.05728C79.3333 6.05207 79.2812 6.10936 79.2812 6.10936Z" fill="white"/>
<path d="M68.3437 13.1614C68.3385 13.3333 68.3333 13.5 68.3333 13.6666C68.1614 13.5 67.9948 13.3333 67.8281 13.1666C68 13.1666 68.1718 13.1666 68.3437 13.1614Z" fill="white"/>
<path d="M66.8073 14.1771L66.9583 14.125C66.9583 14.125 66.8541 14.2083 66.8541 14.2135C66.8541 14.2187 66.8073 14.1771 66.8073 14.1771Z" fill="white"/>
<path d="M65.3177 17.8906L65.2812 17.8438L65.3177 17.8906Z" fill="white"/>
<path d="M65.2812 17.8438L65.3229 17.8958C65.3177 17.8906 65.2812 17.8438 65.2812 17.8438Z" fill="white"/>
<path d="M59.6198 21.4271L59.7239 21.4114C59.7239 21.4114 59.6718 21.3594 59.6666 21.3646L59.6198 21.4271Z" fill="white"/>
<path d="M57.0416 26.3385C56.9635 26.6094 56.8854 26.8854 56.8125 27.1562L56.875 27.1042C56.9323 26.875 56.9948 26.6406 57.0469 26.401C57.0416 26.3906 57.0416 26.3385 57.0416 26.3385Z" fill="white"/>
<path d="M56.8125 27.1562C56.8021 27.1146 56.7916 27.0677 56.7812 27.026C56.8125 27.0521 56.8437 27.0729 56.875 27.1042L56.8125 27.1562Z" fill="white"/>
<path d="M83.4427 9.03125L83.4375 9.14583L83.3073 9.08854L83.4427 9.03125Z" fill="white"/>
<path d="M85.5156 7.03125L85.4896 7.1875L85.4791 7.08854C85.4739 7.08854 85.5156 7.03125 85.5156 7.03125Z" fill="white"/>
<path d="M87.7083 7.11456C87.7135 7.29165 87.7187 7.46873 87.7187 7.64581C87.6771 7.52602 87.6198 7.41144 87.5989 7.29165C87.5937 7.23956 87.6719 7.17706 87.7083 7.11456Z" fill="white"/>
<path d="M52.401 29.5312C52.3958 29.6979 52.3906 29.8594 52.3854 30.026C52.2239 29.8646 52.0573 29.7031 51.8958 29.5417C52.0625 29.5417 52.2343 29.5365 52.401 29.5312Z" fill="white"/>
<path d="M32.5729 58.3698C32.5729 58.5469 32.5729 58.7292 32.5781 58.9062C32.5416 58.7864 32.5 58.6667 32.4844 58.5469C32.4791 58.4896 32.5416 58.4271 32.5729 58.3698Z" fill="white"/>
<path d="M76.026 15.7344C76.1927 15.9063 76.3646 16.0729 76.5312 16.2448C76.3646 16.0729 76.1927 15.9063 76.026 15.7344Z" fill="white"/>
<path d="M80.401 13.651C80.2343 13.651 80.0677 13.651 79.901 13.651C80.0677 13.4844 80.2343 13.3177 80.401 13.1562C80.401 13.3177 80.401 13.4844 80.401 13.651Z" fill="white"/>
<path d="M83.7968 67.0729C83.7916 66.9062 83.7916 66.7396 83.7916 66.5729C83.9062 66.625 84.0156 66.6771 84.125 66.7344C84.0156 66.8437 83.9062 66.9583 83.7968 67.0729Z" fill="white"/>
<path d="M85.5468 66.151L85.4843 66.2448C85.4843 66.2448 85.5156 66.1667 85.5104 66.1719C85.5052 66.1719 85.5468 66.151 85.5468 66.151Z" fill="white"/>
<path d="M71.3489 37.7031C71.3489 37.875 71.3437 38.0469 71.3437 38.2135C71.3437 38.0469 71.3489 37.875 71.3489 37.7031Z" fill="white"/>
<path d="M63.6875 45.7135L63.6354 45.5573C63.6354 45.5573 63.7187 45.6667 63.7239 45.6667L63.6875 45.7135Z" fill="white"/>
<path d="M88.1458 33.0364C87.9843 33.0364 87.8281 33.0364 87.6666 33.0364C87.9687 32.3125 88.276 31.5937 88.5781 30.8698L88.5312 30.8906C88.6927 30.7239 88.8593 30.5625 89.026 30.401L88.9583 30.4739C89.4114 30.6042 89.8646 30.7344 90.3177 30.8646C90.1718 31.0104 90.0208 31.1562 89.8698 31.3073C89.4375 31.7344 89.0104 32.1667 88.5781 32.5989C88.4323 32.7448 88.2916 32.8906 88.1458 33.0364Z" fill="white"/>
<path d="M88.5625 30.4063C88.7083 30.2552 88.8541 30.1042 89 29.9531C88.9896 30.125 88.9739 30.2969 88.9583 30.474L89.026 30.401C88.8593 30.3958 88.6927 30.3958 88.526 30.3958L88.5625 30.4063Z" fill="white"/>
<path d="M85.7135 32.401C85.8177 32.4219 85.9271 32.4427 85.9635 32.4479C85.9271 32.4427 85.8125 32.4271 85.6979 32.4114C85.6927 32.4114 85.7135 32.401 85.7135 32.401Z" fill="white"/>
<path d="M88.5781 30.8698C88.5729 30.7187 88.5677 30.5625 88.5625 30.4062L88.526 30.3958C88.526 30.5573 88.5312 30.7239 88.5312 30.8906L88.5781 30.8698Z" fill="white"/>
<path d="M87.3646 30.7031L87.3281 30.8177C87.3281 30.8177 87.3229 30.6615 87.3229 30.6562L87.3646 30.7031Z" fill="white"/>
<path d="M60.9375 48.0729C61.1198 48.0729 61.2969 48.0677 61.4791 48.0677C61.2969 48.0677 61.1198 48.0729 60.9375 48.0729Z" fill="white"/>
<path d="M188.982 54.9011H187.243L179.961 71.5313L179.738 72.1459L179.514 71.5313L172.29 54.9011H170.498L179.264 74.6406H180.217L188.982 54.9011Z" fill="white"/>
<path d="M201.16 54.9011H199.483V74.5H201.16V54.9011Z" fill="white"/>
<path d="M230.62 54.9011H228.938V71.5313L228.604 71.0573L214.854 54.9011H213.453V74.5H215.135V57.5052L215.5 58.0365L229.641 74.5H230.62V54.9011Z" fill="white"/>
<path d="M244.341 56.4115H256.94V54.9011H242.659V74.5H257.081V72.9896H244.341V65.0938H255.878V63.5781H244.341V56.4115Z" fill="white"/>
<path d="M283.823 54.9011H281.917L275.703 63.3854L275.255 64.0834L274.865 63.3854L268.646 54.9011H266.688L274.386 65.4011V74.5H276.068V65.4271L283.823 54.9011Z" fill="white"/>
<path d="M310.144 74.5H311.936L302.332 54.7604H301.576L291.915 74.5H293.707L295.977 69.7969H307.878L310.144 74.5ZM296.707 68.2865L301.66 58.0625L301.941 57.3646L302.248 58.0625L307.149 68.2865H296.707Z" fill="white"/>
<path d="M336.497 74.5H338.564L332.492 66.8021C335.684 66.2136 337.643 63.8594 337.643 60.8073C337.643 56.7761 334.617 54.9011 330.84 54.9011H321.96V74.5H323.643V66.9375H330.643L336.497 74.5ZM323.643 56.4115H330.783C333.809 56.4115 335.851 57.6719 335.851 60.8386C335.851 63.5261 334.117 65.4271 330.84 65.4271H323.643V56.4115Z" fill="white"/>
<path d="M356.766 54.9011H349.094V74.5H357.245C363.49 74.5 367.354 70.8021 367.354 64.9792C367.354 58.7084 362.927 54.9011 356.766 54.9011ZM356.683 56.4115C361.865 56.4115 365.532 59.5781 365.532 65.0365C365.532 70.0209 362.479 72.9896 357.131 72.9896H350.802V56.4115H356.683Z" fill="white"/>
<path d="M401.258 54.9011H393.586V74.5H401.738C407.982 74.5 411.847 70.8021 411.847 64.9792C411.847 58.7084 407.42 54.9011 401.258 54.9011ZM401.175 56.4115C406.357 56.4115 410.024 59.5781 410.024 65.0365C410.024 70.0209 406.972 72.9896 401.623 72.9896H395.295V56.4115H401.175Z" fill="white"/>
<path d="M439.258 74.5H441.05L431.445 54.7604H430.69L421.029 74.5H422.82L425.091 69.7969H436.992L439.258 74.5ZM425.82 68.2865L430.773 58.0625L431.055 57.3646L431.362 58.0625L436.263 68.2865H425.82Z" fill="white"/>
<path d="M460.876 54.5938C454.715 54.5938 450.267 58.7656 450.267 64.6979C450.267 70.6354 454.715 74.8073 460.876 74.8073C467.006 74.8073 471.459 70.6354 471.459 64.6979C471.459 58.7656 467.006 54.5938 460.876 54.5938ZM460.876 73.2135C455.611 73.2135 452.058 69.7656 452.058 64.6979C452.058 59.6302 455.611 56.1875 460.876 56.1875C466.111 56.1875 469.668 59.6302 469.668 64.6979C469.668 69.7656 466.111 73.2135 460.876 73.2135Z" fill="white"/>
</svg>
